M48
; DRILL file {KiCad 7.0.6} date Sat Sep  9 11:26:57 2023
; FORMAT={-:-/ absolute / inch / decimal}
; #@! TF.CreationDate,2023-09-09T11:26:57-04:00
; #@! TF.GenerationSoftware,Kicad,Pcbnew,7.0.6
; #@! TF.FileFunction,Plated,1,2,PTH
FMAT,2
INCH
; #@! TA.AperFunction,Plated,PTH,ComponentDrill
T1C0.0394
; #@! TA.AperFunction,Plated,PTH,ComponentDrill
T2C0.0472
; #@! TA.AperFunction,Plated,PTH,ComponentDrill
T3C0.1260
%
G90
G05
T1
X5.2Y-3.95
X5.2Y-4.05
X5.2Y-4.15
X5.2Y-4.25
X5.3Y-3.95
X5.3Y-4.05
X5.3Y-4.15
X5.3Y-4.25
T2
X5.6Y-3.92
X5.6Y-4.01
X5.6Y-4.1
X5.6Y-4.19
X5.6Y-4.28
X5.7Y-3.875
X5.7Y-3.965
X5.7Y-4.055
X5.7Y-4.145
X5.7Y-4.235
X5.8Y-3.92
X5.8Y-4.01
X5.8Y-4.1
X5.8Y-4.19
X5.8Y-4.28
T3
X5.7Y-3.5979
X5.7Y-4.5821
T0
M30
