%TF.GenerationSoftware,KiCad,Pcbnew,7.0.6*%
%TF.CreationDate,2023-09-09T11:26:50-04:00*%
%TF.ProjectId,AppleVGA-Connector,4170706c-6556-4474-912d-436f6e6e6563,A*%
%TF.SameCoordinates,Original*%
%TF.FileFunction,Copper,L2,Bot*%
%TF.FilePolarity,Positive*%
%FSLAX46Y46*%
G04 Gerber Fmt 4.6, Leading zero omitted, Abs format (unit mm)*
G04 Created by KiCad (PCBNEW 7.0.6) date 2023-09-09 11:26:50*
%MOMM*%
%LPD*%
G01*
G04 APERTURE LIST*
G04 Aperture macros list*
%AMRoundRect*
0 Rectangle with rounded corners*
0 $1 Rounding radius*
0 $2 $3 $4 $5 $6 $7 $8 $9 X,Y pos of 4 corners*
0 Add a 4 corners polygon primitive as box body*
4,1,4,$2,$3,$4,$5,$6,$7,$8,$9,$2,$3,0*
0 Add four circle primitives for the rounded corners*
1,1,$1+$1,$2,$3*
1,1,$1+$1,$4,$5*
1,1,$1+$1,$6,$7*
1,1,$1+$1,$8,$9*
0 Add four rect primitives between the rounded corners*
20,1,$1+$1,$2,$3,$4,$5,0*
20,1,$1+$1,$4,$5,$6,$7,0*
20,1,$1+$1,$6,$7,$8,$9,0*
20,1,$1+$1,$8,$9,$2,$3,0*%
G04 Aperture macros list end*
%TA.AperFunction,ComponentPad*%
%ADD10C,4.200000*%
%TD*%
%TA.AperFunction,ComponentPad*%
%ADD11C,1.600000*%
%TD*%
%TA.AperFunction,ComponentPad*%
%ADD12RoundRect,0.250000X-0.600000X-0.600000X0.600000X-0.600000X0.600000X0.600000X-0.600000X0.600000X0*%
%TD*%
%TA.AperFunction,ComponentPad*%
%ADD13C,1.700000*%
%TD*%
%TA.AperFunction,Conductor*%
%ADD14C,0.254000*%
%TD*%
G04 APERTURE END LIST*
D10*
%TO.P,J2,0*%
%TO.N,/GND*%
X144780000Y-116386000D03*
X144780000Y-91386000D03*
D11*
%TO.P,J2,1*%
%TO.N,R*%
X142240000Y-99568000D03*
%TO.P,J2,2*%
%TO.N,G*%
X142240000Y-101854000D03*
%TO.P,J2,3*%
%TO.N,B*%
X142240000Y-104140000D03*
%TO.P,J2,4*%
%TO.N,unconnected-(J2-Pad4)*%
X142240000Y-106426000D03*
%TO.P,J2,5*%
%TO.N,/GND*%
X142240000Y-108712000D03*
%TO.P,J2,6*%
X144780000Y-98425000D03*
%TO.P,J2,7*%
X144780000Y-100711000D03*
%TO.P,J2,8*%
X144780000Y-102997000D03*
%TO.P,J2,9*%
%TO.N,unconnected-(J2-Pad9)*%
X144780000Y-105283000D03*
%TO.P,J2,10*%
%TO.N,/GND*%
X144780000Y-107569000D03*
%TO.P,J2,11*%
%TO.N,unconnected-(J2-Pad11)*%
X147320000Y-99568000D03*
%TO.P,J2,12*%
%TO.N,unconnected-(J2-Pad12)*%
X147320000Y-101854000D03*
%TO.P,J2,13*%
%TO.N,HSYNC*%
X147320000Y-104140000D03*
%TO.P,J2,14*%
%TO.N,VSYNC*%
X147320000Y-106426000D03*
%TO.P,J2,15*%
%TO.N,unconnected-(J2-Pad15)*%
X147320000Y-108712000D03*
%TD*%
D12*
%TO.P,J1,1,Pin_1*%
%TO.N,R*%
X132080000Y-100330000D03*
D13*
%TO.P,J1,2,Pin_2*%
%TO.N,/GND*%
X134620000Y-100330000D03*
%TO.P,J1,3,Pin_3*%
%TO.N,G*%
X132080000Y-102870000D03*
%TO.P,J1,4,Pin_4*%
%TO.N,/GND*%
X134620000Y-102870000D03*
%TO.P,J1,5,Pin_5*%
%TO.N,B*%
X132080000Y-105410000D03*
%TO.P,J1,6,Pin_6*%
%TO.N,/GND*%
X134620000Y-105410000D03*
%TO.P,J1,7,Pin_7*%
%TO.N,HSYNC*%
X132080000Y-107950000D03*
%TO.P,J1,8,Pin_8*%
%TO.N,VSYNC*%
X134620000Y-107950000D03*
%TD*%
D14*
%TO.N,/GND*%
X143281400Y-100711000D02*
X141227200Y-100711000D01*
X140185800Y-104140000D02*
X141328800Y-102997000D01*
X141328800Y-102997000D02*
X143256000Y-102997000D01*
X134620000Y-105410000D02*
X134620000Y-106680000D01*
X141122500Y-100815700D02*
X141119300Y-100815700D01*
X141274800Y-107569000D02*
X143256000Y-107569000D01*
X140335000Y-99568000D02*
X138303000Y-99568000D01*
X137160000Y-98425000D02*
X135128000Y-98425000D01*
X142367000Y-97536000D02*
X140335000Y-99568000D01*
X143891000Y-97536000D02*
X142367000Y-97536000D01*
X140385800Y-106680000D02*
X141274800Y-107569000D01*
X134620000Y-98933000D02*
X134620000Y-100330000D01*
X141119300Y-100815700D02*
X140081000Y-101854000D01*
X134620000Y-104140000D02*
X140185800Y-104140000D01*
X137668000Y-101854000D02*
X137414000Y-101600000D01*
X134620000Y-101600000D02*
X134620000Y-102870000D01*
X135128000Y-98425000D02*
X134620000Y-98933000D01*
X138303000Y-99568000D02*
X137160000Y-98425000D01*
X134620000Y-105410000D02*
X134620000Y-104140000D01*
X144780000Y-98425000D02*
X143891000Y-97536000D01*
X137414000Y-101600000D02*
X134620000Y-101600000D01*
X141227200Y-100711000D02*
X141122500Y-100815700D01*
X140081000Y-101854000D02*
X137668000Y-101854000D01*
X134620000Y-106680000D02*
X140385800Y-106680000D01*
%TD*%
%TA.AperFunction,Conductor*%
%TO.N,/GND*%
G36*
X134160507Y-105619844D02*
G01*
X134238239Y-105740798D01*
X134346900Y-105834952D01*
X134477685Y-105894680D01*
X134487466Y-105896086D01*
X133858625Y-106524925D01*
X133942421Y-106583599D01*
X134048345Y-106632993D01*
X134100784Y-106679165D01*
X134119936Y-106746359D01*
X134099720Y-106813240D01*
X134048345Y-106857757D01*
X134001898Y-106879415D01*
X134001896Y-106879416D01*
X133825387Y-107003009D01*
X133825381Y-107003014D01*
X133673014Y-107155381D01*
X133673009Y-107155387D01*
X133549416Y-107331896D01*
X133549415Y-107331898D01*
X133462381Y-107518542D01*
X133416208Y-107570981D01*
X133349015Y-107590133D01*
X133282134Y-107569917D01*
X133237617Y-107518541D01*
X133236245Y-107515599D01*
X133150584Y-107331898D01*
X133104730Y-107266412D01*
X133026990Y-107155387D01*
X133026985Y-107155381D01*
X132874618Y-107003014D01*
X132874612Y-107003009D01*
X132698103Y-106879416D01*
X132698101Y-106879415D01*
X132511457Y-106792381D01*
X132459018Y-106746208D01*
X132439866Y-106679015D01*
X132460082Y-106612134D01*
X132511455Y-106567619D01*
X132698102Y-106480584D01*
X132874617Y-106356987D01*
X133026987Y-106204617D01*
X133150584Y-106028102D01*
X133172242Y-105981655D01*
X133218412Y-105929216D01*
X133285605Y-105910063D01*
X133352487Y-105930277D01*
X133397006Y-105981654D01*
X133446400Y-106087578D01*
X133446402Y-106087583D01*
X133505072Y-106171373D01*
X133505073Y-106171373D01*
X134136923Y-105539523D01*
X134160507Y-105619844D01*
G37*
%TD.AperFunction*%
%TA.AperFunction,Conductor*%
G36*
X134160507Y-103079844D02*
G01*
X134238239Y-103200798D01*
X134346900Y-103294952D01*
X134477685Y-103354680D01*
X134487466Y-103356086D01*
X133858625Y-103984925D01*
X133935031Y-104038425D01*
X133978655Y-104093002D01*
X133985848Y-104162501D01*
X133954326Y-104224855D01*
X133935029Y-104241576D01*
X133858625Y-104295072D01*
X134487466Y-104923913D01*
X134477685Y-104925320D01*
X134346900Y-104985048D01*
X134238239Y-105079202D01*
X134160507Y-105200156D01*
X134136923Y-105280476D01*
X133505072Y-104648625D01*
X133446401Y-104732419D01*
X133397007Y-104838345D01*
X133350834Y-104890784D01*
X133283641Y-104909936D01*
X133216760Y-104889720D01*
X133172243Y-104838345D01*
X133150584Y-104791898D01*
X133150583Y-104791896D01*
X133026990Y-104615387D01*
X133026985Y-104615381D01*
X132874618Y-104463014D01*
X132874612Y-104463009D01*
X132698103Y-104339416D01*
X132698101Y-104339415D01*
X132593545Y-104290660D01*
X132511455Y-104252381D01*
X132459018Y-104206210D01*
X132439866Y-104139016D01*
X132460082Y-104072135D01*
X132511455Y-104027618D01*
X132698102Y-103940584D01*
X132874617Y-103816987D01*
X133026987Y-103664617D01*
X133150584Y-103488102D01*
X133172242Y-103441655D01*
X133218412Y-103389216D01*
X133285605Y-103370063D01*
X133352487Y-103390277D01*
X133397006Y-103441654D01*
X133446400Y-103547578D01*
X133446402Y-103547583D01*
X133505072Y-103631373D01*
X133505073Y-103631373D01*
X134136923Y-102999523D01*
X134160507Y-103079844D01*
G37*
%TD.AperFunction*%
%TA.AperFunction,Conductor*%
G36*
X134160507Y-100539844D02*
G01*
X134238239Y-100660798D01*
X134346900Y-100754952D01*
X134477685Y-100814680D01*
X134487466Y-100816086D01*
X133858625Y-101444925D01*
X133935031Y-101498425D01*
X133978655Y-101553002D01*
X133985848Y-101622501D01*
X133954326Y-101684855D01*
X133935029Y-101701576D01*
X133858625Y-101755072D01*
X134487466Y-102383913D01*
X134477685Y-102385320D01*
X134346900Y-102445048D01*
X134238239Y-102539202D01*
X134160507Y-102660156D01*
X134136923Y-102740476D01*
X133505072Y-102108625D01*
X133446401Y-102192419D01*
X133397007Y-102298345D01*
X133350834Y-102350784D01*
X133283641Y-102369936D01*
X133216760Y-102349720D01*
X133172243Y-102298345D01*
X133150584Y-102251898D01*
X133150583Y-102251896D01*
X133026990Y-102075387D01*
X133026985Y-102075381D01*
X132874618Y-101923014D01*
X132874612Y-101923009D01*
X132698103Y-101799416D01*
X132694731Y-101797844D01*
X132693495Y-101796756D01*
X132693412Y-101796708D01*
X132693421Y-101796691D01*
X132642293Y-101751670D01*
X132623143Y-101684476D01*
X132643361Y-101617595D01*
X132696527Y-101572262D01*
X132742287Y-101561558D01*
X132743779Y-101561500D01*
X132765252Y-101559809D01*
X132779574Y-101558682D01*
X132932792Y-101514168D01*
X133070127Y-101432949D01*
X133182949Y-101320127D01*
X133264168Y-101182792D01*
X133281378Y-101123554D01*
X133318984Y-101064670D01*
X133382456Y-101035463D01*
X133451643Y-101045209D01*
X133502029Y-101087027D01*
X133505072Y-101091373D01*
X133505073Y-101091373D01*
X134136922Y-100459523D01*
X134160507Y-100539844D01*
G37*
%TD.AperFunction*%
%TA.AperFunction,Conductor*%
G36*
X143488020Y-88920185D02*
G01*
X143533775Y-88972989D01*
X143543719Y-89042147D01*
X143514694Y-89105703D01*
X143485130Y-89130617D01*
X143300340Y-89242325D01*
X143300325Y-89242335D01*
X143126261Y-89378706D01*
X143126261Y-89378707D01*
X143835820Y-90088266D01*
X143645130Y-90251130D01*
X143482266Y-90441820D01*
X142772707Y-89732261D01*
X142772706Y-89732261D01*
X142636335Y-89906325D01*
X142636330Y-89906333D01*
X142473606Y-90175513D01*
X142473605Y-90175515D01*
X142344512Y-90462349D01*
X142344508Y-90462360D01*
X142250936Y-90762642D01*
X142194239Y-91072036D01*
X142175248Y-91386000D01*
X142194239Y-91699963D01*
X142250936Y-92009357D01*
X142344508Y-92309639D01*
X142344512Y-92309650D01*
X142473605Y-92596484D01*
X142473606Y-92596486D01*
X142636330Y-92865666D01*
X142636336Y-92865674D01*
X142772707Y-93039737D01*
X143482265Y-92330178D01*
X143645130Y-92520870D01*
X143835819Y-92683733D01*
X143126261Y-93393291D01*
X143126261Y-93393292D01*
X143300325Y-93529663D01*
X143300333Y-93529669D01*
X143569513Y-93692393D01*
X143569515Y-93692394D01*
X143856349Y-93821487D01*
X143856360Y-93821491D01*
X144156642Y-93915063D01*
X144466036Y-93971760D01*
X144780000Y-93990751D01*
X145093963Y-93971760D01*
X145403357Y-93915063D01*
X145703639Y-93821491D01*
X145703650Y-93821487D01*
X145990484Y-93692394D01*
X145990486Y-93692393D01*
X146259666Y-93529669D01*
X146259676Y-93529661D01*
X146433737Y-93393291D01*
X145724180Y-92683733D01*
X145914870Y-92520870D01*
X146077733Y-92330180D01*
X146787291Y-93039737D01*
X146923661Y-92865676D01*
X146923669Y-92865666D01*
X147086393Y-92596486D01*
X147086394Y-92596484D01*
X147215487Y-92309650D01*
X147215491Y-92309639D01*
X147309063Y-92009357D01*
X147365760Y-91699963D01*
X147384751Y-91386000D01*
X147365760Y-91072036D01*
X147309063Y-90762642D01*
X147215491Y-90462360D01*
X147215487Y-90462349D01*
X147086394Y-90175515D01*
X147086393Y-90175513D01*
X146923669Y-89906333D01*
X146923663Y-89906325D01*
X146787291Y-89732261D01*
X146077733Y-90441819D01*
X145914870Y-90251130D01*
X145724179Y-90088265D01*
X146433737Y-89378707D01*
X146433737Y-89378706D01*
X146259674Y-89242336D01*
X146259666Y-89242330D01*
X146074869Y-89130617D01*
X146027682Y-89079089D01*
X146015843Y-89010230D01*
X146043112Y-88945901D01*
X146100830Y-88906527D01*
X146139019Y-88900500D01*
X152910500Y-88900500D01*
X152977539Y-88920185D01*
X153023294Y-88972989D01*
X153034500Y-89024500D01*
X153034500Y-118855501D01*
X153014815Y-118922540D01*
X152962011Y-118968295D01*
X152910500Y-118979501D01*
X145930212Y-118979501D01*
X145863173Y-118959816D01*
X145817418Y-118907012D01*
X145807474Y-118837854D01*
X145836499Y-118774298D01*
X145879321Y-118742425D01*
X145990484Y-118692394D01*
X145990486Y-118692393D01*
X146259666Y-118529669D01*
X146259676Y-118529661D01*
X146433737Y-118393291D01*
X145724180Y-117683733D01*
X145914870Y-117520870D01*
X146077733Y-117330179D01*
X146787291Y-118039737D01*
X146923661Y-117865676D01*
X146923669Y-117865666D01*
X147086393Y-117596486D01*
X147086394Y-117596484D01*
X147215487Y-117309650D01*
X147215491Y-117309639D01*
X147309063Y-117009357D01*
X147365760Y-116699963D01*
X147384751Y-116386000D01*
X147365760Y-116072036D01*
X147309063Y-115762642D01*
X147215491Y-115462360D01*
X147215487Y-115462349D01*
X147086394Y-115175515D01*
X147086393Y-115175513D01*
X146923669Y-114906333D01*
X146923663Y-114906325D01*
X146787291Y-114732261D01*
X146077732Y-115441818D01*
X145914870Y-115251130D01*
X145724179Y-115088265D01*
X146433737Y-114378707D01*
X146433737Y-114378706D01*
X146259674Y-114242336D01*
X146259666Y-114242330D01*
X145990486Y-114079606D01*
X145990484Y-114079605D01*
X145703650Y-113950512D01*
X145703639Y-113950508D01*
X145403357Y-113856936D01*
X145093963Y-113800239D01*
X144780000Y-113781248D01*
X144466036Y-113800239D01*
X144156642Y-113856936D01*
X143856360Y-113950508D01*
X143856349Y-113950512D01*
X143569515Y-114079605D01*
X143569513Y-114079606D01*
X143300333Y-114242330D01*
X143300325Y-114242335D01*
X143126261Y-114378706D01*
X143126261Y-114378707D01*
X143835820Y-115088266D01*
X143645130Y-115251130D01*
X143482266Y-115441819D01*
X142772707Y-114732261D01*
X142772706Y-114732261D01*
X142636335Y-114906325D01*
X142636330Y-114906333D01*
X142473606Y-115175513D01*
X142473605Y-115175515D01*
X142344512Y-115462349D01*
X142344508Y-115462360D01*
X142250936Y-115762642D01*
X142194239Y-116072036D01*
X142175248Y-116386000D01*
X142194239Y-116699963D01*
X142250936Y-117009357D01*
X142344508Y-117309639D01*
X142344512Y-117309650D01*
X142473605Y-117596484D01*
X142473606Y-117596486D01*
X142636330Y-117865666D01*
X142636336Y-117865674D01*
X142772707Y-118039737D01*
X143482265Y-117330179D01*
X143645130Y-117520870D01*
X143835819Y-117683733D01*
X143126261Y-118393291D01*
X143126261Y-118393292D01*
X143300325Y-118529663D01*
X143300333Y-118529669D01*
X143569513Y-118692393D01*
X143569515Y-118692394D01*
X143680679Y-118742425D01*
X143733733Y-118787889D01*
X143753786Y-118854819D01*
X143734470Y-118921966D01*
X143681919Y-118968011D01*
X143629788Y-118979501D01*
X128584595Y-118979501D01*
X128517556Y-118959816D01*
X128496914Y-118943182D01*
X127671819Y-118118086D01*
X127638334Y-118056763D01*
X127635500Y-118030405D01*
X127635500Y-107950000D01*
X130843796Y-107950000D01*
X130862576Y-108164660D01*
X130862578Y-108164670D01*
X130918345Y-108372799D01*
X130918347Y-108372803D01*
X130918348Y-108372807D01*
X130952102Y-108445192D01*
X131009415Y-108568101D01*
X131009416Y-108568103D01*
X131133009Y-108744612D01*
X131133014Y-108744618D01*
X131285381Y-108896985D01*
X131285387Y-108896990D01*
X131461896Y-109020583D01*
X131461898Y-109020584D01*
X131657193Y-109111652D01*
X131865335Y-109167423D01*
X132037066Y-109182447D01*
X132079999Y-109186204D01*
X132080000Y-109186204D01*
X132080001Y-109186204D01*
X132115777Y-109183073D01*
X132294665Y-109167423D01*
X132502807Y-109111652D01*
X132698102Y-109020584D01*
X132874617Y-108896987D01*
X133026987Y-108744617D01*
X133150584Y-108568102D01*
X133237619Y-108381455D01*
X133283789Y-108329018D01*
X133350982Y-108309866D01*
X133417863Y-108330081D01*
X133462381Y-108381457D01*
X133549415Y-108568101D01*
X133549416Y-108568103D01*
X133673009Y-108744612D01*
X133673014Y-108744618D01*
X133825381Y-108896985D01*
X133825387Y-108896990D01*
X134001896Y-109020583D01*
X134001898Y-109020584D01*
X134197193Y-109111652D01*
X134405335Y-109167423D01*
X134577066Y-109182447D01*
X134619999Y-109186204D01*
X134620000Y-109186204D01*
X134620001Y-109186204D01*
X134655777Y-109183073D01*
X134834665Y-109167423D01*
X135042807Y-109111652D01*
X135238102Y-109020584D01*
X135414617Y-108896987D01*
X135566987Y-108744617D01*
X135589824Y-108712002D01*
X140935034Y-108712002D01*
X140954858Y-108938599D01*
X140954860Y-108938610D01*
X141013730Y-109158317D01*
X141013734Y-109158326D01*
X141109865Y-109364481D01*
X141109866Y-109364483D01*
X141160973Y-109437471D01*
X141160974Y-109437472D01*
X141677226Y-108921219D01*
X141715901Y-109014588D01*
X141812075Y-109139925D01*
X141937412Y-109236099D01*
X142030779Y-109274772D01*
X141514526Y-109791025D01*
X141514526Y-109791026D01*
X141587512Y-109842131D01*
X141587516Y-109842133D01*
X141793673Y-109938265D01*
X141793682Y-109938269D01*
X142013389Y-109997139D01*
X142013400Y-109997141D01*
X142239998Y-110016966D01*
X142240002Y-110016966D01*
X142466599Y-109997141D01*
X142466610Y-109997139D01*
X142686317Y-109938269D01*
X142686331Y-109938264D01*
X142892478Y-109842136D01*
X142965472Y-109791025D01*
X142449220Y-109274772D01*
X142542588Y-109236099D01*
X142667925Y-109139925D01*
X142764099Y-109014589D01*
X142802773Y-108921219D01*
X143319025Y-109437472D01*
X143370136Y-109364478D01*
X143466264Y-109158331D01*
X143466269Y-109158317D01*
X143525139Y-108938610D01*
X143525141Y-108938599D01*
X143544966Y-108712002D01*
X143544966Y-108711997D01*
X143525141Y-108485400D01*
X143525140Y-108485393D01*
X143514368Y-108445192D01*
X143516031Y-108375342D01*
X143555193Y-108317480D01*
X143619421Y-108289975D01*
X143644951Y-108289570D01*
X143700974Y-108294471D01*
X144217226Y-107778219D01*
X144255901Y-107871588D01*
X144352075Y-107996925D01*
X144477412Y-108093099D01*
X144570779Y-108131772D01*
X144054526Y-108648025D01*
X144054526Y-108648026D01*
X144127512Y-108699131D01*
X144127516Y-108699133D01*
X144333673Y-108795265D01*
X144333682Y-108795269D01*
X144553389Y-108854139D01*
X144553400Y-108854141D01*
X144779998Y-108873966D01*
X144780002Y-108873966D01*
X145006599Y-108854141D01*
X145006610Y-108854139D01*
X145226317Y-108795269D01*
X145226331Y-108795264D01*
X145404891Y-108712000D01*
X146133438Y-108712000D01*
X146153640Y-108930029D01*
X146213563Y-109140633D01*
X146213567Y-109140642D01*
X146311159Y-109336634D01*
X146311166Y-109336646D01*
X146332184Y-109364478D01*
X146443120Y-109511382D01*
X146604937Y-109658897D01*
X146791104Y-109774167D01*
X146791105Y-109774167D01*
X146791106Y-109774168D01*
X146834360Y-109790924D01*
X146995282Y-109853266D01*
X147210518Y-109893500D01*
X147210521Y-109893500D01*
X147429479Y-109893500D01*
X147429482Y-109893500D01*
X147644718Y-109853266D01*
X147848896Y-109774167D01*
X148035063Y-109658897D01*
X148196880Y-109511382D01*
X148328835Y-109336644D01*
X148426436Y-109140636D01*
X148486359Y-108930030D01*
X148506562Y-108712000D01*
X148486359Y-108493970D01*
X148426436Y-108283364D01*
X148348797Y-108127444D01*
X148328840Y-108087365D01*
X148328833Y-108087353D01*
X148305638Y-108056638D01*
X148196880Y-107912618D01*
X148035063Y-107765103D01*
X148035057Y-107765099D01*
X148035054Y-107765097D01*
X147955445Y-107715805D01*
X147888615Y-107674426D01*
X147841980Y-107622399D01*
X147830876Y-107553418D01*
X147858829Y-107489383D01*
X147888614Y-107463574D01*
X148035063Y-107372897D01*
X148196880Y-107225382D01*
X148328835Y-107050644D01*
X148426436Y-106854636D01*
X148486359Y-106644030D01*
X148506562Y-106426000D01*
X148486359Y-106207970D01*
X148426436Y-105997364D01*
X148345564Y-105834952D01*
X148328840Y-105801365D01*
X148328833Y-105801353D01*
X148283104Y-105740798D01*
X148196880Y-105626618D01*
X148035063Y-105479103D01*
X148035057Y-105479099D01*
X148035054Y-105479097D01*
X147955445Y-105429805D01*
X147888615Y-105388426D01*
X147841980Y-105336399D01*
X147830876Y-105267418D01*
X147858829Y-105203383D01*
X147888614Y-105177574D01*
X148035063Y-105086897D01*
X148196880Y-104939382D01*
X148328835Y-104764644D01*
X148426436Y-104568636D01*
X148486359Y-104358030D01*
X148506562Y-104140000D01*
X148486359Y-103921970D01*
X148426436Y-103711364D01*
X148361799Y-103581556D01*
X148328840Y-103515365D01*
X148328833Y-103515353D01*
X148305638Y-103484638D01*
X148196880Y-103340618D01*
X148035063Y-103193103D01*
X147888615Y-103102426D01*
X147841980Y-103050398D01*
X147830876Y-102981416D01*
X147858829Y-102917382D01*
X147888610Y-102891576D01*
X148035063Y-102800897D01*
X148196880Y-102653382D01*
X148328835Y-102478644D01*
X148426436Y-102282636D01*
X148486359Y-102072030D01*
X148506562Y-101854000D01*
X148486359Y-101635970D01*
X148426436Y-101425364D01*
X148331695Y-101235099D01*
X148328840Y-101229365D01*
X148328833Y-101229353D01*
X148305638Y-101198638D01*
X148196880Y-101054618D01*
X148035063Y-100907103D01*
X148035057Y-100907099D01*
X148035054Y-100907097D01*
X147955445Y-100857805D01*
X147888615Y-100816426D01*
X147841980Y-100764399D01*
X147830876Y-100695418D01*
X147858829Y-100631383D01*
X147888614Y-100605574D01*
X148035063Y-100514897D01*
X148196880Y-100367382D01*
X148328835Y-100192644D01*
X148426436Y-99996636D01*
X148486359Y-99786030D01*
X148506562Y-99568000D01*
X148486359Y-99349970D01*
X148426436Y-99139364D01*
X148331695Y-98949099D01*
X148328840Y-98943365D01*
X148328833Y-98943353D01*
X148305638Y-98912638D01*
X148196880Y-98768618D01*
X148035063Y-98621103D01*
X147848896Y-98505833D01*
X147848894Y-98505832D01*
X147848893Y-98505831D01*
X147687974Y-98443491D01*
X147644718Y-98426734D01*
X147429482Y-98386500D01*
X147210518Y-98386500D01*
X146995282Y-98426734D01*
X146995279Y-98426734D01*
X146995279Y-98426735D01*
X146791106Y-98505831D01*
X146791105Y-98505832D01*
X146604941Y-98621100D01*
X146604939Y-98621101D01*
X146604937Y-98621103D01*
X146443120Y-98768618D01*
X146421729Y-98796943D01*
X146311166Y-98943353D01*
X146311159Y-98943365D01*
X146213567Y-99139357D01*
X146213563Y-99139366D01*
X146153640Y-99349970D01*
X146133438Y-99567999D01*
X146133438Y-99568000D01*
X146153640Y-99786029D01*
X146213563Y-99996633D01*
X146213567Y-99996642D01*
X146311159Y-100192634D01*
X146311166Y-100192646D01*
X146355752Y-100251687D01*
X146443120Y-100367382D01*
X146604937Y-100514897D01*
X146751384Y-100605573D01*
X146798019Y-100657601D01*
X146809123Y-100726583D01*
X146781170Y-100790617D01*
X146751385Y-100816425D01*
X146691816Y-100853309D01*
X146604941Y-100907100D01*
X146604939Y-100907101D01*
X146604937Y-100907103D01*
X146443120Y-101054618D01*
X146435529Y-101064670D01*
X146311166Y-101229353D01*
X146311159Y-101229365D01*
X146213567Y-101425357D01*
X146213563Y-101425366D01*
X146153640Y-101635970D01*
X146133438Y-101853999D01*
X146133438Y-101854000D01*
X146153640Y-102072029D01*
X146213563Y-102282633D01*
X146213567Y-102282642D01*
X146311159Y-102478634D01*
X146311166Y-102478646D01*
X146339712Y-102516447D01*
X146443120Y-102653382D01*
X146604937Y-102800897D01*
X146751384Y-102891573D01*
X146798019Y-102943601D01*
X146809123Y-103012583D01*
X146781170Y-103076617D01*
X146751385Y-103102425D01*
X146691816Y-103139309D01*
X146604941Y-103193100D01*
X146604939Y-103193101D01*
X146604937Y-103193103D01*
X146443120Y-103340618D01*
X146432501Y-103354680D01*
X146311166Y-103515353D01*
X146311159Y-103515365D01*
X146213567Y-103711357D01*
X146213563Y-103711366D01*
X146153640Y-103921970D01*
X146133438Y-104139999D01*
X146133438Y-104140000D01*
X146153640Y-104358029D01*
X146213563Y-104568633D01*
X146213567Y-104568642D01*
X146311159Y-104764634D01*
X146311166Y-104764646D01*
X146331746Y-104791898D01*
X146443120Y-104939382D01*
X146604937Y-105086897D01*
X146751384Y-105177573D01*
X146798019Y-105229601D01*
X146809123Y-105298583D01*
X146781170Y-105362617D01*
X146751385Y-105388425D01*
X146691816Y-105425309D01*
X146604941Y-105479100D01*
X146604939Y-105479101D01*
X146604937Y-105479103D01*
X146443120Y-105626618D01*
X146421729Y-105654943D01*
X146311166Y-105801353D01*
X146311159Y-105801365D01*
X146213567Y-105997357D01*
X146213563Y-105997366D01*
X146153640Y-106207970D01*
X146133438Y-106425999D01*
X146133438Y-106426000D01*
X146153640Y-106644029D01*
X146213563Y-106854633D01*
X146213567Y-106854642D01*
X146311159Y-107050634D01*
X146311166Y-107050646D01*
X146355752Y-107109687D01*
X146443120Y-107225382D01*
X146604937Y-107372897D01*
X146751384Y-107463573D01*
X146798019Y-107515599D01*
X146809123Y-107584581D01*
X146781170Y-107648616D01*
X146751384Y-107674426D01*
X146604941Y-107765100D01*
X146604939Y-107765101D01*
X146604937Y-107765103D01*
X146443120Y-107912618D01*
X146421729Y-107940943D01*
X146311166Y-108087353D01*
X146311159Y-108087365D01*
X146213567Y-108283357D01*
X146213563Y-108283366D01*
X146153640Y-108493970D01*
X146133438Y-108711999D01*
X146133438Y-108712000D01*
X145404891Y-108712000D01*
X145432478Y-108699136D01*
X145505472Y-108648025D01*
X144989220Y-108131772D01*
X145082588Y-108093099D01*
X145207925Y-107996925D01*
X145304099Y-107871589D01*
X145342773Y-107778219D01*
X145859025Y-108294472D01*
X145910136Y-108221478D01*
X146006264Y-108015331D01*
X146006269Y-108015317D01*
X146065139Y-107795610D01*
X146065141Y-107795599D01*
X146084966Y-107569002D01*
X146084966Y-107568997D01*
X146065141Y-107342400D01*
X146065139Y-107342389D01*
X146006269Y-107122682D01*
X146006265Y-107122673D01*
X145910133Y-106916516D01*
X145910131Y-106916512D01*
X145859026Y-106843526D01*
X145859025Y-106843526D01*
X145342772Y-107359778D01*
X145304099Y-107266412D01*
X145207925Y-107141075D01*
X145082588Y-107044901D01*
X144989219Y-107006226D01*
X145505472Y-106489974D01*
X145505471Y-106489973D01*
X145457617Y-106456465D01*
X145413992Y-106401889D01*
X145406798Y-106332390D01*
X145438321Y-106270035D01*
X145463463Y-106249463D01*
X145495055Y-106229902D01*
X145495055Y-106229901D01*
X145495063Y-106229897D01*
X145656880Y-106082382D01*
X145788835Y-105907644D01*
X145886436Y-105711636D01*
X145946359Y-105501030D01*
X145966562Y-105283000D01*
X145946359Y-105064970D01*
X145886436Y-104854364D01*
X145825714Y-104732419D01*
X145788840Y-104658365D01*
X145788833Y-104658353D01*
X145765638Y-104627638D01*
X145656880Y-104483618D01*
X145495063Y-104336103D01*
X145495050Y-104336095D01*
X145463461Y-104316535D01*
X145416826Y-104264507D01*
X145405723Y-104195525D01*
X145433677Y-104131491D01*
X145457617Y-104109534D01*
X145505472Y-104076025D01*
X144989220Y-103559772D01*
X145082588Y-103521099D01*
X145207925Y-103424925D01*
X145304099Y-103299589D01*
X145342773Y-103206220D01*
X145859025Y-103722472D01*
X145910136Y-103649478D01*
X146006264Y-103443331D01*
X146006269Y-103443317D01*
X146065139Y-103223610D01*
X146065141Y-103223599D01*
X146084966Y-102997002D01*
X146084966Y-102996997D01*
X146065141Y-102770400D01*
X146065139Y-102770389D01*
X146006269Y-102550682D01*
X146006265Y-102550673D01*
X145910133Y-102344516D01*
X145910131Y-102344512D01*
X145859026Y-102271526D01*
X145859025Y-102271526D01*
X145342772Y-102787779D01*
X145304099Y-102694412D01*
X145207925Y-102569075D01*
X145082588Y-102472901D01*
X144989219Y-102434226D01*
X145505471Y-101917974D01*
X145500820Y-101864813D01*
X145500820Y-101843196D01*
X145505472Y-101790025D01*
X144989220Y-101273772D01*
X145082588Y-101235099D01*
X145207925Y-101138925D01*
X145304099Y-101013589D01*
X145342773Y-100920220D01*
X145859025Y-101436472D01*
X145910136Y-101363478D01*
X146006264Y-101157331D01*
X146006269Y-101157317D01*
X146065139Y-100937610D01*
X146065141Y-100937599D01*
X146084966Y-100711002D01*
X146084966Y-100710997D01*
X146065141Y-100484400D01*
X146065139Y-100484389D01*
X146006269Y-100264682D01*
X146006265Y-100264673D01*
X145910133Y-100058516D01*
X145910131Y-100058512D01*
X145859026Y-99985526D01*
X145859025Y-99985526D01*
X145342772Y-100501779D01*
X145304099Y-100408412D01*
X145207925Y-100283075D01*
X145082588Y-100186901D01*
X144989219Y-100148226D01*
X145505471Y-99631974D01*
X145500820Y-99578813D01*
X145500820Y-99557196D01*
X145505472Y-99504025D01*
X144989220Y-98987772D01*
X145082588Y-98949099D01*
X145207925Y-98852925D01*
X145304099Y-98727589D01*
X145342773Y-98634220D01*
X145859025Y-99150472D01*
X145910136Y-99077478D01*
X146006264Y-98871331D01*
X146006269Y-98871317D01*
X146065139Y-98651610D01*
X146065141Y-98651599D01*
X146084966Y-98425002D01*
X146084966Y-98424997D01*
X146065141Y-98198400D01*
X146065139Y-98198389D01*
X146006269Y-97978682D01*
X146006265Y-97978673D01*
X145910133Y-97772516D01*
X145910131Y-97772512D01*
X145859026Y-97699526D01*
X145859025Y-97699526D01*
X145342772Y-98215779D01*
X145304099Y-98122412D01*
X145207925Y-97997075D01*
X145082588Y-97900901D01*
X144989219Y-97862226D01*
X145505472Y-97345974D01*
X145505471Y-97345973D01*
X145432483Y-97294866D01*
X145432481Y-97294865D01*
X145226326Y-97198734D01*
X145226317Y-97198730D01*
X145006610Y-97139860D01*
X145006599Y-97139858D01*
X144780002Y-97120034D01*
X144779998Y-97120034D01*
X144553400Y-97139858D01*
X144553389Y-97139860D01*
X144333682Y-97198730D01*
X144333673Y-97198734D01*
X144127513Y-97294868D01*
X144054527Y-97345972D01*
X144054526Y-97345973D01*
X144570780Y-97862226D01*
X144477412Y-97900901D01*
X144352075Y-97997075D01*
X144255901Y-98122411D01*
X144217227Y-98215779D01*
X143700973Y-97699526D01*
X143700972Y-97699527D01*
X143649868Y-97772513D01*
X143553734Y-97978673D01*
X143553730Y-97978682D01*
X143494860Y-98198389D01*
X143494858Y-98198400D01*
X143475034Y-98424997D01*
X143475034Y-98425002D01*
X143494858Y-98651599D01*
X143494860Y-98651610D01*
X143553730Y-98871317D01*
X143553734Y-98871326D01*
X143649865Y-99077481D01*
X143649866Y-99077483D01*
X143700973Y-99150471D01*
X143700974Y-99150472D01*
X144217226Y-98634219D01*
X144255901Y-98727588D01*
X144352075Y-98852925D01*
X144477412Y-98949099D01*
X144570779Y-98987772D01*
X144054526Y-99504025D01*
X144059178Y-99557197D01*
X144059178Y-99578812D01*
X144054526Y-99631973D01*
X144570780Y-100148226D01*
X144477412Y-100186901D01*
X144352075Y-100283075D01*
X144255901Y-100408411D01*
X144217227Y-100501779D01*
X143700973Y-99985526D01*
X143700972Y-99985527D01*
X143649868Y-100058513D01*
X143553734Y-100264673D01*
X143553730Y-100264682D01*
X143494860Y-100484389D01*
X143494858Y-100484400D01*
X143475034Y-100710997D01*
X143475034Y-100711002D01*
X143494858Y-100937599D01*
X143494860Y-100937610D01*
X143553730Y-101157317D01*
X143553734Y-101157326D01*
X143649865Y-101363481D01*
X143649866Y-101363483D01*
X143700973Y-101436471D01*
X143700974Y-101436472D01*
X144217226Y-100920219D01*
X144255901Y-101013588D01*
X144352075Y-101138925D01*
X144477412Y-101235099D01*
X144570779Y-101273772D01*
X144054526Y-101790025D01*
X144059178Y-101843197D01*
X144059178Y-101864812D01*
X144054526Y-101917973D01*
X144570780Y-102434226D01*
X144477412Y-102472901D01*
X144352075Y-102569075D01*
X144255901Y-102694411D01*
X144217226Y-102787779D01*
X143700973Y-102271526D01*
X143700972Y-102271527D01*
X143649868Y-102344513D01*
X143553734Y-102550673D01*
X143553730Y-102550682D01*
X143494860Y-102770389D01*
X143494858Y-102770400D01*
X143475034Y-102996997D01*
X143475034Y-102997002D01*
X143494858Y-103223599D01*
X143494860Y-103223610D01*
X143553730Y-103443317D01*
X143553734Y-103443326D01*
X143649865Y-103649481D01*
X143649866Y-103649483D01*
X143700973Y-103722471D01*
X143700974Y-103722472D01*
X144217226Y-103206219D01*
X144255901Y-103299588D01*
X144352075Y-103424925D01*
X144477412Y-103521099D01*
X144570779Y-103559772D01*
X144054526Y-104076025D01*
X144102381Y-104109533D01*
X144146007Y-104164110D01*
X144153201Y-104233608D01*
X144121679Y-104295963D01*
X144096539Y-104316534D01*
X144064947Y-104336095D01*
X144064942Y-104336099D01*
X144064938Y-104336101D01*
X144064937Y-104336103D01*
X143925727Y-104463009D01*
X143903121Y-104483617D01*
X143771166Y-104658353D01*
X143771159Y-104658365D01*
X143673567Y-104854357D01*
X143673563Y-104854366D01*
X143613640Y-105064970D01*
X143593438Y-105282999D01*
X143593438Y-105283000D01*
X143613640Y-105501029D01*
X143673563Y-105711633D01*
X143673567Y-105711642D01*
X143771159Y-105907634D01*
X143771166Y-105907646D01*
X143815752Y-105966687D01*
X143903120Y-106082382D01*
X144064937Y-106229897D01*
X144096536Y-106249462D01*
X144143171Y-106301488D01*
X144154276Y-106370470D01*
X144126324Y-106434505D01*
X144102383Y-106456464D01*
X144054527Y-106489973D01*
X144054526Y-106489973D01*
X144570780Y-107006226D01*
X144477412Y-107044901D01*
X144352075Y-107141075D01*
X144255901Y-107266411D01*
X144217227Y-107359779D01*
X143700973Y-106843526D01*
X143700972Y-106843527D01*
X143649868Y-106916513D01*
X143553734Y-107122673D01*
X143553730Y-107122682D01*
X143494860Y-107342389D01*
X143494858Y-107342400D01*
X143475034Y-107568997D01*
X143475034Y-107569002D01*
X143494858Y-107795599D01*
X143494859Y-107795606D01*
X143505631Y-107835805D01*
X143503968Y-107905655D01*
X143464806Y-107963518D01*
X143400577Y-107991022D01*
X143375050Y-107991427D01*
X143319025Y-107986525D01*
X142802772Y-108502778D01*
X142764099Y-108409412D01*
X142667925Y-108284075D01*
X142542588Y-108187901D01*
X142449218Y-108149226D01*
X142965472Y-107632973D01*
X142917617Y-107599465D01*
X142873992Y-107544889D01*
X142866798Y-107475390D01*
X142898321Y-107413035D01*
X142923463Y-107392463D01*
X142955055Y-107372902D01*
X142955055Y-107372901D01*
X142955063Y-107372897D01*
X143116880Y-107225382D01*
X143248835Y-107050644D01*
X143346436Y-106854636D01*
X143406359Y-106644030D01*
X143426562Y-106426000D01*
X143406359Y-106207970D01*
X143346436Y-105997364D01*
X143265564Y-105834952D01*
X143248840Y-105801365D01*
X143248833Y-105801353D01*
X143203104Y-105740798D01*
X143116880Y-105626618D01*
X142955063Y-105479103D01*
X142955057Y-105479099D01*
X142955054Y-105479097D01*
X142875445Y-105429805D01*
X142808615Y-105388426D01*
X142761980Y-105336399D01*
X142750876Y-105267418D01*
X142778829Y-105203383D01*
X142808614Y-105177574D01*
X142955063Y-105086897D01*
X143116880Y-104939382D01*
X143248835Y-104764644D01*
X143346436Y-104568636D01*
X143406359Y-104358030D01*
X143426562Y-104140000D01*
X143406359Y-103921970D01*
X143346436Y-103711364D01*
X143281799Y-103581556D01*
X143248840Y-103515365D01*
X143248833Y-103515353D01*
X143225638Y-103484638D01*
X143116880Y-103340618D01*
X142955063Y-103193103D01*
X142955057Y-103193099D01*
X142955054Y-103193097D01*
X142875445Y-103143805D01*
X142808615Y-103102426D01*
X142761980Y-103050399D01*
X142750876Y-102981418D01*
X142778829Y-102917383D01*
X142808614Y-102891574D01*
X142955063Y-102800897D01*
X143116880Y-102653382D01*
X143248835Y-102478644D01*
X143346436Y-102282636D01*
X143406359Y-102072030D01*
X143426562Y-101854000D01*
X143421358Y-101797844D01*
X143406359Y-101635970D01*
X143385170Y-101561500D01*
X143346436Y-101425364D01*
X143251695Y-101235099D01*
X143248840Y-101229365D01*
X143248833Y-101229353D01*
X143225638Y-101198638D01*
X143116880Y-101054618D01*
X142955063Y-100907103D01*
X142955057Y-100907099D01*
X142955054Y-100907097D01*
X142875445Y-100857805D01*
X142808615Y-100816426D01*
X142761980Y-100764399D01*
X142750876Y-100695418D01*
X142778829Y-100631383D01*
X142808614Y-100605574D01*
X142955063Y-100514897D01*
X143116880Y-100367382D01*
X143248835Y-100192644D01*
X143346436Y-99996636D01*
X143406359Y-99786030D01*
X143426562Y-99568000D01*
X143406359Y-99349970D01*
X143346436Y-99139364D01*
X143251695Y-98949099D01*
X143248840Y-98943365D01*
X143248833Y-98943353D01*
X143225638Y-98912638D01*
X143116880Y-98768618D01*
X142955063Y-98621103D01*
X142768896Y-98505833D01*
X142768894Y-98505832D01*
X142768893Y-98505831D01*
X142607974Y-98443491D01*
X142564718Y-98426734D01*
X142349482Y-98386500D01*
X142130518Y-98386500D01*
X141915282Y-98426734D01*
X141915279Y-98426734D01*
X141915279Y-98426735D01*
X141711106Y-98505831D01*
X141711105Y-98505832D01*
X141524941Y-98621100D01*
X141524939Y-98621101D01*
X141524937Y-98621103D01*
X141363120Y-98768618D01*
X141341729Y-98796943D01*
X141231166Y-98943353D01*
X141231159Y-98943365D01*
X141133567Y-99139357D01*
X141133563Y-99139366D01*
X141073640Y-99349970D01*
X141053438Y-99567999D01*
X141053438Y-99568000D01*
X141073640Y-99786029D01*
X141133563Y-99996633D01*
X141133567Y-99996642D01*
X141231159Y-100192634D01*
X141231166Y-100192646D01*
X141275752Y-100251687D01*
X141363120Y-100367382D01*
X141524937Y-100514897D01*
X141671384Y-100605573D01*
X141718019Y-100657601D01*
X141729123Y-100726583D01*
X141701170Y-100790617D01*
X141671385Y-100816425D01*
X141611816Y-100853309D01*
X141524941Y-100907100D01*
X141524939Y-100907101D01*
X141524937Y-100907103D01*
X141363120Y-101054618D01*
X141355529Y-101064670D01*
X141231166Y-101229353D01*
X141231159Y-101229365D01*
X141133567Y-101425357D01*
X141133563Y-101425366D01*
X141073640Y-101635970D01*
X141053438Y-101853999D01*
X141053438Y-101854000D01*
X141073640Y-102072029D01*
X141133563Y-102282633D01*
X141133567Y-102282642D01*
X141231159Y-102478634D01*
X141231166Y-102478646D01*
X141259712Y-102516447D01*
X141363120Y-102653382D01*
X141524937Y-102800897D01*
X141671384Y-102891573D01*
X141718019Y-102943601D01*
X141729123Y-103012583D01*
X141701170Y-103076617D01*
X141671385Y-103102425D01*
X141611816Y-103139309D01*
X141524941Y-103193100D01*
X141524939Y-103193101D01*
X141524937Y-103193103D01*
X141363120Y-103340618D01*
X141352501Y-103354680D01*
X141231166Y-103515353D01*
X141231159Y-103515365D01*
X141133567Y-103711357D01*
X141133563Y-103711366D01*
X141073640Y-103921970D01*
X141053438Y-104139999D01*
X141053438Y-104140000D01*
X141073640Y-104358029D01*
X141133563Y-104568633D01*
X141133567Y-104568642D01*
X141231159Y-104764634D01*
X141231166Y-104764646D01*
X141251746Y-104791898D01*
X141363120Y-104939382D01*
X141524937Y-105086897D01*
X141671384Y-105177573D01*
X141718019Y-105229601D01*
X141729123Y-105298583D01*
X141701170Y-105362617D01*
X141671385Y-105388425D01*
X141611816Y-105425309D01*
X141524941Y-105479100D01*
X141524939Y-105479101D01*
X141524937Y-105479103D01*
X141363120Y-105626618D01*
X141341729Y-105654943D01*
X141231166Y-105801353D01*
X141231159Y-105801365D01*
X141133567Y-105997357D01*
X141133563Y-105997366D01*
X141073640Y-106207970D01*
X141053438Y-106425999D01*
X141053438Y-106426000D01*
X141073640Y-106644029D01*
X141133563Y-106854633D01*
X141133567Y-106854642D01*
X141231159Y-107050634D01*
X141231166Y-107050646D01*
X141275751Y-107109687D01*
X141363120Y-107225382D01*
X141524937Y-107372897D01*
X141556536Y-107392462D01*
X141603171Y-107444488D01*
X141614276Y-107513470D01*
X141586324Y-107577505D01*
X141562383Y-107599464D01*
X141514526Y-107632973D01*
X142030779Y-108149227D01*
X141937412Y-108187901D01*
X141812075Y-108284075D01*
X141715901Y-108409411D01*
X141677226Y-108502779D01*
X141160973Y-107986526D01*
X141160972Y-107986527D01*
X141109868Y-108059513D01*
X141013734Y-108265673D01*
X141013730Y-108265682D01*
X140954860Y-108485389D01*
X140954858Y-108485400D01*
X140935034Y-108711997D01*
X140935034Y-108712002D01*
X135589824Y-108712002D01*
X135690584Y-108568102D01*
X135781652Y-108372807D01*
X135837423Y-108164665D01*
X135856204Y-107950000D01*
X135837423Y-107735335D01*
X135781652Y-107527193D01*
X135690584Y-107331898D01*
X135644730Y-107266412D01*
X135566990Y-107155387D01*
X135566985Y-107155381D01*
X135414618Y-107003014D01*
X135414612Y-107003009D01*
X135238103Y-106879416D01*
X135238101Y-106879415D01*
X135191655Y-106857757D01*
X135139216Y-106811584D01*
X135120064Y-106744391D01*
X135140280Y-106677510D01*
X135191656Y-106632993D01*
X135297574Y-106583602D01*
X135297582Y-106583598D01*
X135381373Y-106524926D01*
X135381373Y-106524925D01*
X134752533Y-105896086D01*
X134762315Y-105894680D01*
X134893100Y-105834952D01*
X135001761Y-105740798D01*
X135079493Y-105619844D01*
X135103077Y-105539523D01*
X135734926Y-106171373D01*
X135793598Y-106087582D01*
X135793600Y-106087578D01*
X135893429Y-105873492D01*
X135893433Y-105873483D01*
X135954567Y-105645326D01*
X135954569Y-105645315D01*
X135975157Y-105410001D01*
X135975157Y-105409998D01*
X135954569Y-105174684D01*
X135954567Y-105174673D01*
X135893433Y-104946516D01*
X135893429Y-104946507D01*
X135793600Y-104732423D01*
X135793599Y-104732421D01*
X135734925Y-104648626D01*
X135734925Y-104648625D01*
X135103076Y-105280473D01*
X135079493Y-105200156D01*
X135001761Y-105079202D01*
X134893100Y-104985048D01*
X134762315Y-104925320D01*
X134752533Y-104923913D01*
X135381373Y-104295073D01*
X135304969Y-104241576D01*
X135261344Y-104186999D01*
X135254150Y-104117501D01*
X135285672Y-104055146D01*
X135304968Y-104038425D01*
X135381373Y-103984925D01*
X134752533Y-103356086D01*
X134762315Y-103354680D01*
X134893100Y-103294952D01*
X135001761Y-103200798D01*
X135079493Y-103079844D01*
X135103076Y-102999524D01*
X135734925Y-103631373D01*
X135734926Y-103631373D01*
X135793598Y-103547582D01*
X135793600Y-103547578D01*
X135893429Y-103333492D01*
X135893433Y-103333483D01*
X135954567Y-103105326D01*
X135954569Y-103105315D01*
X135975157Y-102870001D01*
X135975157Y-102869998D01*
X135954569Y-102634684D01*
X135954567Y-102634673D01*
X135893433Y-102406516D01*
X135893429Y-102406507D01*
X135793600Y-102192423D01*
X135793599Y-102192421D01*
X135734925Y-102108626D01*
X135734925Y-102108625D01*
X135103076Y-102740475D01*
X135079493Y-102660156D01*
X135001761Y-102539202D01*
X134893100Y-102445048D01*
X134762315Y-102385320D01*
X134752533Y-102383913D01*
X135381373Y-101755073D01*
X135304969Y-101701576D01*
X135261344Y-101646999D01*
X135254150Y-101577501D01*
X135285672Y-101515146D01*
X135304968Y-101498425D01*
X135381373Y-101444925D01*
X134752533Y-100816086D01*
X134762315Y-100814680D01*
X134893100Y-100754952D01*
X135001761Y-100660798D01*
X135079493Y-100539844D01*
X135103076Y-100459524D01*
X135734925Y-101091373D01*
X135734926Y-101091373D01*
X135793598Y-101007582D01*
X135793600Y-101007578D01*
X135893429Y-100793492D01*
X135893433Y-100793483D01*
X135954567Y-100565326D01*
X135954569Y-100565315D01*
X135975157Y-100330001D01*
X135975157Y-100329998D01*
X135954569Y-100094684D01*
X135954567Y-100094673D01*
X135893433Y-99866516D01*
X135893429Y-99866507D01*
X135793600Y-99652423D01*
X135793599Y-99652421D01*
X135734925Y-99568626D01*
X135734925Y-99568625D01*
X135103076Y-100200475D01*
X135079493Y-100120156D01*
X135001761Y-99999202D01*
X134893100Y-99905048D01*
X134762315Y-99845320D01*
X134752531Y-99843913D01*
X135381373Y-99215073D01*
X135381373Y-99215072D01*
X135297583Y-99156402D01*
X135297579Y-99156400D01*
X135083492Y-99056570D01*
X135083483Y-99056566D01*
X134855326Y-98995432D01*
X134855315Y-98995430D01*
X134620002Y-98974843D01*
X134619998Y-98974843D01*
X134384684Y-98995430D01*
X134384673Y-98995432D01*
X134156516Y-99056566D01*
X134156507Y-99056570D01*
X133942419Y-99156401D01*
X133858625Y-99215072D01*
X134487466Y-99843913D01*
X134477685Y-99845320D01*
X134346900Y-99905048D01*
X134238239Y-99999202D01*
X134160507Y-100120156D01*
X134136923Y-100200474D01*
X133505073Y-99568625D01*
X133505072Y-99568626D01*
X133502029Y-99572972D01*
X133447453Y-99616597D01*
X133377954Y-99623791D01*
X133315599Y-99592269D01*
X133281378Y-99536444D01*
X133264169Y-99477212D01*
X133264167Y-99477206D01*
X133182950Y-99339875D01*
X133182949Y-99339873D01*
X133182947Y-99339871D01*
X133182944Y-99339867D01*
X133070132Y-99227055D01*
X133070124Y-99227049D01*
X132932793Y-99145832D01*
X132932787Y-99145830D01*
X132779580Y-99101319D01*
X132779569Y-99101317D01*
X132743773Y-99098500D01*
X132743770Y-99098500D01*
X131416230Y-99098500D01*
X131416227Y-99098500D01*
X131380430Y-99101317D01*
X131380419Y-99101319D01*
X131227212Y-99145830D01*
X131227206Y-99145832D01*
X131089875Y-99227049D01*
X131089867Y-99227055D01*
X130977055Y-99339867D01*
X130977049Y-99339875D01*
X130895832Y-99477206D01*
X130895830Y-99477212D01*
X130851319Y-99630419D01*
X130851317Y-99630430D01*
X130848500Y-99666227D01*
X130848500Y-100993773D01*
X130851317Y-101029569D01*
X130851319Y-101029580D01*
X130895830Y-101182787D01*
X130895832Y-101182793D01*
X130977049Y-101320124D01*
X130977055Y-101320132D01*
X131089867Y-101432944D01*
X131089871Y-101432947D01*
X131089873Y-101432949D01*
X131227208Y-101514168D01*
X131380426Y-101558682D01*
X131394196Y-101559765D01*
X131416222Y-101561500D01*
X131417713Y-101561558D01*
X131483931Y-101583851D01*
X131527584Y-101638405D01*
X131534813Y-101707900D01*
X131503323Y-101770271D01*
X131465273Y-101797841D01*
X131461904Y-101799411D01*
X131461896Y-101799416D01*
X131285387Y-101923009D01*
X131285381Y-101923014D01*
X131133014Y-102075381D01*
X131133009Y-102075387D01*
X131009416Y-102251896D01*
X131009415Y-102251898D01*
X130918349Y-102447191D01*
X130918345Y-102447200D01*
X130862578Y-102655329D01*
X130862576Y-102655339D01*
X130843796Y-102869999D01*
X130843796Y-102870000D01*
X130862576Y-103084660D01*
X130862578Y-103084670D01*
X130918345Y-103292799D01*
X130918347Y-103292803D01*
X130918348Y-103292807D01*
X130940643Y-103340618D01*
X131009415Y-103488101D01*
X131009416Y-103488103D01*
X131133009Y-103664612D01*
X131133014Y-103664618D01*
X131285381Y-103816985D01*
X131285387Y-103816990D01*
X131461896Y-103940583D01*
X131461898Y-103940584D01*
X131648542Y-104027618D01*
X131700981Y-104073790D01*
X131720133Y-104140984D01*
X131699917Y-104207865D01*
X131648542Y-104252382D01*
X131461898Y-104339415D01*
X131461896Y-104339416D01*
X131285387Y-104463009D01*
X131285381Y-104463014D01*
X131133014Y-104615381D01*
X131133009Y-104615387D01*
X131009416Y-104791896D01*
X131009415Y-104791898D01*
X130918349Y-104987191D01*
X130918345Y-104987200D01*
X130862578Y-105195329D01*
X130862576Y-105195339D01*
X130843796Y-105409999D01*
X130843796Y-105410000D01*
X130862576Y-105624660D01*
X130862578Y-105624670D01*
X130918345Y-105832799D01*
X130918347Y-105832803D01*
X130918348Y-105832807D01*
X130937316Y-105873483D01*
X131009415Y-106028101D01*
X131009416Y-106028103D01*
X131133009Y-106204612D01*
X131133014Y-106204618D01*
X131285381Y-106356985D01*
X131285387Y-106356990D01*
X131461896Y-106480583D01*
X131461898Y-106480584D01*
X131648542Y-106567618D01*
X131700981Y-106613790D01*
X131720133Y-106680984D01*
X131699917Y-106747865D01*
X131648542Y-106792382D01*
X131461898Y-106879415D01*
X131461896Y-106879416D01*
X131285387Y-107003009D01*
X131285381Y-107003014D01*
X131133014Y-107155381D01*
X131133009Y-107155387D01*
X131009416Y-107331896D01*
X131009415Y-107331898D01*
X130918349Y-107527191D01*
X130918345Y-107527200D01*
X130862578Y-107735329D01*
X130862576Y-107735339D01*
X130843796Y-107949999D01*
X130843796Y-107950000D01*
X127635500Y-107950000D01*
X127635500Y-89849594D01*
X127655185Y-89782555D01*
X127671819Y-89761913D01*
X128496913Y-88936819D01*
X128558236Y-88903334D01*
X128584594Y-88900500D01*
X143420981Y-88900500D01*
X143488020Y-88920185D01*
G37*
%TD.AperFunction*%
%TD*%
M02*
