%TF.GenerationSoftware,KiCad,Pcbnew,7.0.6*%
%TF.CreationDate,2023-09-09T11:26:50-04:00*%
%TF.ProjectId,AppleVGA-Connector,4170706c-6556-4474-912d-436f6e6e6563,A*%
%TF.SameCoordinates,Original*%
%TF.FileFunction,Legend,Top*%
%TF.FilePolarity,Positive*%
%FSLAX46Y46*%
G04 Gerber Fmt 4.6, Leading zero omitted, Abs format (unit mm)*
G04 Created by KiCad (PCBNEW 7.0.6) date 2023-09-09 11:26:50*
%MOMM*%
%LPD*%
G01*
G04 APERTURE LIST*
%ADD10C,0.150000*%
%ADD11C,0.025400*%
%ADD12C,0.152400*%
%ADD13C,0.100000*%
%ADD14C,0.010000*%
%ADD15C,0.120000*%
G04 APERTURE END LIST*
D10*
X138938000Y-106045000D02*
X138303000Y-106045000D01*
X138938000Y-104775000D02*
X138938000Y-106045000D01*
X138303000Y-99695000D02*
X138938000Y-99695000D01*
X138938000Y-99695000D02*
X138938000Y-100965000D01*
D11*
X132080000Y-98425000D02*
X131445000Y-97155000D01*
X132715000Y-97155000D01*
X132080000Y-98425000D01*
G36*
X132080000Y-98425000D02*
G01*
X131445000Y-97155000D01*
X132715000Y-97155000D01*
X132080000Y-98425000D01*
G37*
D12*
X149346735Y-108587546D02*
X150072450Y-108587546D01*
X150072450Y-108587546D02*
X150217593Y-108635927D01*
X150217593Y-108635927D02*
X150314355Y-108732689D01*
X150314355Y-108732689D02*
X150362735Y-108877832D01*
X150362735Y-108877832D02*
X150362735Y-108974594D01*
X150362735Y-107619927D02*
X150362735Y-108103737D01*
X150362735Y-108103737D02*
X149346735Y-108103737D01*
X150265974Y-106700689D02*
X150314355Y-106749070D01*
X150314355Y-106749070D02*
X150362735Y-106894213D01*
X150362735Y-106894213D02*
X150362735Y-106990975D01*
X150362735Y-106990975D02*
X150314355Y-107136118D01*
X150314355Y-107136118D02*
X150217593Y-107232880D01*
X150217593Y-107232880D02*
X150120831Y-107281261D01*
X150120831Y-107281261D02*
X149927307Y-107329642D01*
X149927307Y-107329642D02*
X149782164Y-107329642D01*
X149782164Y-107329642D02*
X149588640Y-107281261D01*
X149588640Y-107281261D02*
X149491878Y-107232880D01*
X149491878Y-107232880D02*
X149395116Y-107136118D01*
X149395116Y-107136118D02*
X149346735Y-106990975D01*
X149346735Y-106990975D02*
X149346735Y-106894213D01*
X149346735Y-106894213D02*
X149395116Y-106749070D01*
X149395116Y-106749070D02*
X149443497Y-106700689D01*
X149346735Y-105974975D02*
X150072450Y-105974975D01*
X150072450Y-105974975D02*
X150217593Y-106023356D01*
X150217593Y-106023356D02*
X150314355Y-106120118D01*
X150314355Y-106120118D02*
X150362735Y-106265261D01*
X150362735Y-106265261D02*
X150362735Y-106362023D01*
X150362735Y-105007356D02*
X150362735Y-105491166D01*
X150362735Y-105491166D02*
X149346735Y-105491166D01*
X150265974Y-104088118D02*
X150314355Y-104136499D01*
X150314355Y-104136499D02*
X150362735Y-104281642D01*
X150362735Y-104281642D02*
X150362735Y-104378404D01*
X150362735Y-104378404D02*
X150314355Y-104523547D01*
X150314355Y-104523547D02*
X150217593Y-104620309D01*
X150217593Y-104620309D02*
X150120831Y-104668690D01*
X150120831Y-104668690D02*
X149927307Y-104717071D01*
X149927307Y-104717071D02*
X149782164Y-104717071D01*
X149782164Y-104717071D02*
X149588640Y-104668690D01*
X149588640Y-104668690D02*
X149491878Y-104620309D01*
X149491878Y-104620309D02*
X149395116Y-104523547D01*
X149395116Y-104523547D02*
X149346735Y-104378404D01*
X149346735Y-104378404D02*
X149346735Y-104281642D01*
X149346735Y-104281642D02*
X149395116Y-104136499D01*
X149395116Y-104136499D02*
X149443497Y-104088118D01*
X149346735Y-103362404D02*
X150072450Y-103362404D01*
X150072450Y-103362404D02*
X150217593Y-103410785D01*
X150217593Y-103410785D02*
X150314355Y-103507547D01*
X150314355Y-103507547D02*
X150362735Y-103652690D01*
X150362735Y-103652690D02*
X150362735Y-103749452D01*
X150362735Y-102394785D02*
X150362735Y-102878595D01*
X150362735Y-102878595D02*
X149346735Y-102878595D01*
X150265974Y-101475547D02*
X150314355Y-101523928D01*
X150314355Y-101523928D02*
X150362735Y-101669071D01*
X150362735Y-101669071D02*
X150362735Y-101765833D01*
X150362735Y-101765833D02*
X150314355Y-101910976D01*
X150314355Y-101910976D02*
X150217593Y-102007738D01*
X150217593Y-102007738D02*
X150120831Y-102056119D01*
X150120831Y-102056119D02*
X149927307Y-102104500D01*
X149927307Y-102104500D02*
X149782164Y-102104500D01*
X149782164Y-102104500D02*
X149588640Y-102056119D01*
X149588640Y-102056119D02*
X149491878Y-102007738D01*
X149491878Y-102007738D02*
X149395116Y-101910976D01*
X149395116Y-101910976D02*
X149346735Y-101765833D01*
X149346735Y-101765833D02*
X149346735Y-101669071D01*
X149346735Y-101669071D02*
X149395116Y-101523928D01*
X149395116Y-101523928D02*
X149443497Y-101475547D01*
X149346735Y-100749833D02*
X150072450Y-100749833D01*
X150072450Y-100749833D02*
X150217593Y-100798214D01*
X150217593Y-100798214D02*
X150314355Y-100894976D01*
X150314355Y-100894976D02*
X150362735Y-101040119D01*
X150362735Y-101040119D02*
X150362735Y-101136881D01*
X150362735Y-99782214D02*
X150362735Y-100266024D01*
X150362735Y-100266024D02*
X149346735Y-100266024D01*
X150265974Y-98862976D02*
X150314355Y-98911357D01*
X150314355Y-98911357D02*
X150362735Y-99056500D01*
X150362735Y-99056500D02*
X150362735Y-99153262D01*
X150362735Y-99153262D02*
X150314355Y-99298405D01*
X150314355Y-99298405D02*
X150217593Y-99395167D01*
X150217593Y-99395167D02*
X150120831Y-99443548D01*
X150120831Y-99443548D02*
X149927307Y-99491929D01*
X149927307Y-99491929D02*
X149782164Y-99491929D01*
X149782164Y-99491929D02*
X149588640Y-99443548D01*
X149588640Y-99443548D02*
X149491878Y-99395167D01*
X149491878Y-99395167D02*
X149395116Y-99298405D01*
X149395116Y-99298405D02*
X149346735Y-99153262D01*
X149346735Y-99153262D02*
X149346735Y-99056500D01*
X149346735Y-99056500D02*
X149395116Y-98911357D01*
X149395116Y-98911357D02*
X149443497Y-98862976D01*
D10*
X128416207Y-99310819D02*
X128082874Y-98834628D01*
X127844779Y-99310819D02*
X127844779Y-98310819D01*
X127844779Y-98310819D02*
X128225731Y-98310819D01*
X128225731Y-98310819D02*
X128320969Y-98358438D01*
X128320969Y-98358438D02*
X128368588Y-98406057D01*
X128368588Y-98406057D02*
X128416207Y-98501295D01*
X128416207Y-98501295D02*
X128416207Y-98644152D01*
X128416207Y-98644152D02*
X128368588Y-98739390D01*
X128368588Y-98739390D02*
X128320969Y-98787009D01*
X128320969Y-98787009D02*
X128225731Y-98834628D01*
X128225731Y-98834628D02*
X127844779Y-98834628D01*
X127844779Y-108454819D02*
X127844779Y-107454819D01*
X127844779Y-107931009D02*
X128416207Y-107931009D01*
X128416207Y-108454819D02*
X128416207Y-107454819D01*
X128368588Y-102422438D02*
X128273350Y-102374819D01*
X128273350Y-102374819D02*
X128130493Y-102374819D01*
X128130493Y-102374819D02*
X127987636Y-102422438D01*
X127987636Y-102422438D02*
X127892398Y-102517676D01*
X127892398Y-102517676D02*
X127844779Y-102612914D01*
X127844779Y-102612914D02*
X127797160Y-102803390D01*
X127797160Y-102803390D02*
X127797160Y-102946247D01*
X127797160Y-102946247D02*
X127844779Y-103136723D01*
X127844779Y-103136723D02*
X127892398Y-103231961D01*
X127892398Y-103231961D02*
X127987636Y-103327200D01*
X127987636Y-103327200D02*
X128130493Y-103374819D01*
X128130493Y-103374819D02*
X128225731Y-103374819D01*
X128225731Y-103374819D02*
X128368588Y-103327200D01*
X128368588Y-103327200D02*
X128416207Y-103279580D01*
X128416207Y-103279580D02*
X128416207Y-102946247D01*
X128416207Y-102946247D02*
X128225731Y-102946247D01*
X129733922Y-89334819D02*
X130067255Y-90334819D01*
X130067255Y-90334819D02*
X130400588Y-89334819D01*
X131257731Y-89382438D02*
X131162493Y-89334819D01*
X131162493Y-89334819D02*
X131019636Y-89334819D01*
X131019636Y-89334819D02*
X130876779Y-89382438D01*
X130876779Y-89382438D02*
X130781541Y-89477676D01*
X130781541Y-89477676D02*
X130733922Y-89572914D01*
X130733922Y-89572914D02*
X130686303Y-89763390D01*
X130686303Y-89763390D02*
X130686303Y-89906247D01*
X130686303Y-89906247D02*
X130733922Y-90096723D01*
X130733922Y-90096723D02*
X130781541Y-90191961D01*
X130781541Y-90191961D02*
X130876779Y-90287200D01*
X130876779Y-90287200D02*
X131019636Y-90334819D01*
X131019636Y-90334819D02*
X131114874Y-90334819D01*
X131114874Y-90334819D02*
X131257731Y-90287200D01*
X131257731Y-90287200D02*
X131305350Y-90239580D01*
X131305350Y-90239580D02*
X131305350Y-89906247D01*
X131305350Y-89906247D02*
X131114874Y-89906247D01*
X131686303Y-90049104D02*
X132162493Y-90049104D01*
X131591065Y-90334819D02*
X131924398Y-89334819D01*
X131924398Y-89334819D02*
X132257731Y-90334819D01*
X130448207Y-91849580D02*
X130400588Y-91897200D01*
X130400588Y-91897200D02*
X130257731Y-91944819D01*
X130257731Y-91944819D02*
X130162493Y-91944819D01*
X130162493Y-91944819D02*
X130019636Y-91897200D01*
X130019636Y-91897200D02*
X129924398Y-91801961D01*
X129924398Y-91801961D02*
X129876779Y-91706723D01*
X129876779Y-91706723D02*
X129829160Y-91516247D01*
X129829160Y-91516247D02*
X129829160Y-91373390D01*
X129829160Y-91373390D02*
X129876779Y-91182914D01*
X129876779Y-91182914D02*
X129924398Y-91087676D01*
X129924398Y-91087676D02*
X130019636Y-90992438D01*
X130019636Y-90992438D02*
X130162493Y-90944819D01*
X130162493Y-90944819D02*
X130257731Y-90944819D01*
X130257731Y-90944819D02*
X130400588Y-90992438D01*
X130400588Y-90992438D02*
X130448207Y-91040057D01*
X131019636Y-91944819D02*
X130924398Y-91897200D01*
X130924398Y-91897200D02*
X130876779Y-91849580D01*
X130876779Y-91849580D02*
X130829160Y-91754342D01*
X130829160Y-91754342D02*
X130829160Y-91468628D01*
X130829160Y-91468628D02*
X130876779Y-91373390D01*
X130876779Y-91373390D02*
X130924398Y-91325771D01*
X130924398Y-91325771D02*
X131019636Y-91278152D01*
X131019636Y-91278152D02*
X131162493Y-91278152D01*
X131162493Y-91278152D02*
X131257731Y-91325771D01*
X131257731Y-91325771D02*
X131305350Y-91373390D01*
X131305350Y-91373390D02*
X131352969Y-91468628D01*
X131352969Y-91468628D02*
X131352969Y-91754342D01*
X131352969Y-91754342D02*
X131305350Y-91849580D01*
X131305350Y-91849580D02*
X131257731Y-91897200D01*
X131257731Y-91897200D02*
X131162493Y-91944819D01*
X131162493Y-91944819D02*
X131019636Y-91944819D01*
X131781541Y-91278152D02*
X131781541Y-91944819D01*
X131781541Y-91373390D02*
X131829160Y-91325771D01*
X131829160Y-91325771D02*
X131924398Y-91278152D01*
X131924398Y-91278152D02*
X132067255Y-91278152D01*
X132067255Y-91278152D02*
X132162493Y-91325771D01*
X132162493Y-91325771D02*
X132210112Y-91421009D01*
X132210112Y-91421009D02*
X132210112Y-91944819D01*
X132686303Y-91278152D02*
X132686303Y-91944819D01*
X132686303Y-91373390D02*
X132733922Y-91325771D01*
X132733922Y-91325771D02*
X132829160Y-91278152D01*
X132829160Y-91278152D02*
X132972017Y-91278152D01*
X132972017Y-91278152D02*
X133067255Y-91325771D01*
X133067255Y-91325771D02*
X133114874Y-91421009D01*
X133114874Y-91421009D02*
X133114874Y-91944819D01*
X133972017Y-91897200D02*
X133876779Y-91944819D01*
X133876779Y-91944819D02*
X133686303Y-91944819D01*
X133686303Y-91944819D02*
X133591065Y-91897200D01*
X133591065Y-91897200D02*
X133543446Y-91801961D01*
X133543446Y-91801961D02*
X133543446Y-91421009D01*
X133543446Y-91421009D02*
X133591065Y-91325771D01*
X133591065Y-91325771D02*
X133686303Y-91278152D01*
X133686303Y-91278152D02*
X133876779Y-91278152D01*
X133876779Y-91278152D02*
X133972017Y-91325771D01*
X133972017Y-91325771D02*
X134019636Y-91421009D01*
X134019636Y-91421009D02*
X134019636Y-91516247D01*
X134019636Y-91516247D02*
X133543446Y-91611485D01*
X134876779Y-91897200D02*
X134781541Y-91944819D01*
X134781541Y-91944819D02*
X134591065Y-91944819D01*
X134591065Y-91944819D02*
X134495827Y-91897200D01*
X134495827Y-91897200D02*
X134448208Y-91849580D01*
X134448208Y-91849580D02*
X134400589Y-91754342D01*
X134400589Y-91754342D02*
X134400589Y-91468628D01*
X134400589Y-91468628D02*
X134448208Y-91373390D01*
X134448208Y-91373390D02*
X134495827Y-91325771D01*
X134495827Y-91325771D02*
X134591065Y-91278152D01*
X134591065Y-91278152D02*
X134781541Y-91278152D01*
X134781541Y-91278152D02*
X134876779Y-91325771D01*
X135162494Y-91278152D02*
X135543446Y-91278152D01*
X135305351Y-90944819D02*
X135305351Y-91801961D01*
X135305351Y-91801961D02*
X135352970Y-91897200D01*
X135352970Y-91897200D02*
X135448208Y-91944819D01*
X135448208Y-91944819D02*
X135543446Y-91944819D01*
X136019637Y-91944819D02*
X135924399Y-91897200D01*
X135924399Y-91897200D02*
X135876780Y-91849580D01*
X135876780Y-91849580D02*
X135829161Y-91754342D01*
X135829161Y-91754342D02*
X135829161Y-91468628D01*
X135829161Y-91468628D02*
X135876780Y-91373390D01*
X135876780Y-91373390D02*
X135924399Y-91325771D01*
X135924399Y-91325771D02*
X136019637Y-91278152D01*
X136019637Y-91278152D02*
X136162494Y-91278152D01*
X136162494Y-91278152D02*
X136257732Y-91325771D01*
X136257732Y-91325771D02*
X136305351Y-91373390D01*
X136305351Y-91373390D02*
X136352970Y-91468628D01*
X136352970Y-91468628D02*
X136352970Y-91754342D01*
X136352970Y-91754342D02*
X136305351Y-91849580D01*
X136305351Y-91849580D02*
X136257732Y-91897200D01*
X136257732Y-91897200D02*
X136162494Y-91944819D01*
X136162494Y-91944819D02*
X136019637Y-91944819D01*
X136781542Y-91944819D02*
X136781542Y-91278152D01*
X136781542Y-91468628D02*
X136829161Y-91373390D01*
X136829161Y-91373390D02*
X136876780Y-91325771D01*
X136876780Y-91325771D02*
X136972018Y-91278152D01*
X136972018Y-91278152D02*
X137067256Y-91278152D01*
X138369922Y-107454819D02*
X138703255Y-108454819D01*
X138703255Y-108454819D02*
X139036588Y-107454819D01*
X128178112Y-105264009D02*
X128320969Y-105311628D01*
X128320969Y-105311628D02*
X128368588Y-105359247D01*
X128368588Y-105359247D02*
X128416207Y-105454485D01*
X128416207Y-105454485D02*
X128416207Y-105597342D01*
X128416207Y-105597342D02*
X128368588Y-105692580D01*
X128368588Y-105692580D02*
X128320969Y-105740200D01*
X128320969Y-105740200D02*
X128225731Y-105787819D01*
X128225731Y-105787819D02*
X127844779Y-105787819D01*
X127844779Y-105787819D02*
X127844779Y-104787819D01*
X127844779Y-104787819D02*
X128178112Y-104787819D01*
X128178112Y-104787819D02*
X128273350Y-104835438D01*
X128273350Y-104835438D02*
X128320969Y-104883057D01*
X128320969Y-104883057D02*
X128368588Y-104978295D01*
X128368588Y-104978295D02*
X128368588Y-105073533D01*
X128368588Y-105073533D02*
X128320969Y-105168771D01*
X128320969Y-105168771D02*
X128273350Y-105216390D01*
X128273350Y-105216390D02*
X128178112Y-105264009D01*
X128178112Y-105264009D02*
X127844779Y-105264009D01*
X138363438Y-103660411D02*
X138315819Y-103755649D01*
X138315819Y-103755649D02*
X138315819Y-103898506D01*
X138315819Y-103898506D02*
X138363438Y-104041363D01*
X138363438Y-104041363D02*
X138458676Y-104136601D01*
X138458676Y-104136601D02*
X138553914Y-104184220D01*
X138553914Y-104184220D02*
X138744390Y-104231839D01*
X138744390Y-104231839D02*
X138887247Y-104231839D01*
X138887247Y-104231839D02*
X139077723Y-104184220D01*
X139077723Y-104184220D02*
X139172961Y-104136601D01*
X139172961Y-104136601D02*
X139268200Y-104041363D01*
X139268200Y-104041363D02*
X139315819Y-103898506D01*
X139315819Y-103898506D02*
X139315819Y-103803268D01*
X139315819Y-103803268D02*
X139268200Y-103660411D01*
X139268200Y-103660411D02*
X139220580Y-103612792D01*
X139220580Y-103612792D02*
X138887247Y-103612792D01*
X138887247Y-103612792D02*
X138887247Y-103803268D01*
X139315819Y-103184220D02*
X138315819Y-103184220D01*
X138315819Y-103184220D02*
X139315819Y-102612792D01*
X139315819Y-102612792D02*
X138315819Y-102612792D01*
X139315819Y-102136601D02*
X138315819Y-102136601D01*
X138315819Y-102136601D02*
X138315819Y-101898506D01*
X138315819Y-101898506D02*
X138363438Y-101755649D01*
X138363438Y-101755649D02*
X138458676Y-101660411D01*
X138458676Y-101660411D02*
X138553914Y-101612792D01*
X138553914Y-101612792D02*
X138744390Y-101565173D01*
X138744390Y-101565173D02*
X138887247Y-101565173D01*
X138887247Y-101565173D02*
X139077723Y-101612792D01*
X139077723Y-101612792D02*
X139172961Y-101660411D01*
X139172961Y-101660411D02*
X139268200Y-101755649D01*
X139268200Y-101755649D02*
X139315819Y-101898506D01*
X139315819Y-101898506D02*
X139315819Y-102136601D01*
%TO.C,J2*%
D13*
X141173200Y-99542600D02*
X140411200Y-99923600D01*
X140411200Y-99161600D01*
X141173200Y-99542600D01*
G36*
X141173200Y-99542600D02*
G01*
X140411200Y-99923600D01*
X140411200Y-99161600D01*
X141173200Y-99542600D01*
G37*
%TO.C,REF\u002A\u002A*%
D14*
X136637600Y-118163752D02*
X136654948Y-118171334D01*
X136696356Y-118204128D01*
X136731765Y-118251547D01*
X136753664Y-118302151D01*
X136757229Y-118327098D01*
X136745279Y-118361927D01*
X136719067Y-118380357D01*
X136690964Y-118391516D01*
X136678095Y-118393572D01*
X136671829Y-118378649D01*
X136659456Y-118346175D01*
X136654028Y-118331502D01*
X136623590Y-118280744D01*
X136579520Y-118255427D01*
X136523010Y-118256206D01*
X136518825Y-118257203D01*
X136488655Y-118271507D01*
X136466476Y-118299393D01*
X136451327Y-118344287D01*
X136442250Y-118409615D01*
X136438286Y-118498804D01*
X136437914Y-118546261D01*
X136437730Y-118621071D01*
X136436522Y-118672069D01*
X136433309Y-118704471D01*
X136427109Y-118723495D01*
X136416940Y-118734356D01*
X136401819Y-118742272D01*
X136400946Y-118742670D01*
X136371828Y-118754981D01*
X136357403Y-118759514D01*
X136355186Y-118745809D01*
X136353289Y-118707925D01*
X136351847Y-118650715D01*
X136350998Y-118579027D01*
X136350829Y-118526565D01*
X136351692Y-118425047D01*
X136355070Y-118348032D01*
X136362142Y-118291023D01*
X136374088Y-118249526D01*
X136392090Y-118219043D01*
X136417327Y-118195080D01*
X136442247Y-118178355D01*
X136502171Y-118156097D01*
X136571911Y-118151076D01*
X136637600Y-118163752D01*
G36*
X136637600Y-118163752D02*
G01*
X136654948Y-118171334D01*
X136696356Y-118204128D01*
X136731765Y-118251547D01*
X136753664Y-118302151D01*
X136757229Y-118327098D01*
X136745279Y-118361927D01*
X136719067Y-118380357D01*
X136690964Y-118391516D01*
X136678095Y-118393572D01*
X136671829Y-118378649D01*
X136659456Y-118346175D01*
X136654028Y-118331502D01*
X136623590Y-118280744D01*
X136579520Y-118255427D01*
X136523010Y-118256206D01*
X136518825Y-118257203D01*
X136488655Y-118271507D01*
X136466476Y-118299393D01*
X136451327Y-118344287D01*
X136442250Y-118409615D01*
X136438286Y-118498804D01*
X136437914Y-118546261D01*
X136437730Y-118621071D01*
X136436522Y-118672069D01*
X136433309Y-118704471D01*
X136427109Y-118723495D01*
X136416940Y-118734356D01*
X136401819Y-118742272D01*
X136400946Y-118742670D01*
X136371828Y-118754981D01*
X136357403Y-118759514D01*
X136355186Y-118745809D01*
X136353289Y-118707925D01*
X136351847Y-118650715D01*
X136350998Y-118579027D01*
X136350829Y-118526565D01*
X136351692Y-118425047D01*
X136355070Y-118348032D01*
X136362142Y-118291023D01*
X136374088Y-118249526D01*
X136392090Y-118219043D01*
X136417327Y-118195080D01*
X136442247Y-118178355D01*
X136502171Y-118156097D01*
X136571911Y-118151076D01*
X136637600Y-118163752D01*
G37*
X132701093Y-118132780D02*
X132747672Y-118159723D01*
X132780057Y-118186466D01*
X132803742Y-118214484D01*
X132820059Y-118248748D01*
X132830339Y-118294227D01*
X132835914Y-118355892D01*
X132838116Y-118438711D01*
X132838371Y-118498246D01*
X132838371Y-118717391D01*
X132776686Y-118745044D01*
X132715000Y-118772697D01*
X132707743Y-118532670D01*
X132704744Y-118443028D01*
X132701598Y-118377962D01*
X132697701Y-118333026D01*
X132692447Y-118303770D01*
X132685231Y-118285748D01*
X132675450Y-118274511D01*
X132672312Y-118272079D01*
X132624761Y-118253083D01*
X132576697Y-118260600D01*
X132548086Y-118280543D01*
X132536447Y-118294675D01*
X132528391Y-118313220D01*
X132523271Y-118341334D01*
X132520441Y-118384173D01*
X132519256Y-118446895D01*
X132519057Y-118512261D01*
X132519018Y-118594268D01*
X132517614Y-118652316D01*
X132512914Y-118691465D01*
X132502987Y-118716780D01*
X132485903Y-118733323D01*
X132459732Y-118746156D01*
X132424775Y-118759491D01*
X132386596Y-118774007D01*
X132391141Y-118516389D01*
X132392971Y-118423519D01*
X132395112Y-118354889D01*
X132398181Y-118305711D01*
X132402794Y-118271198D01*
X132409568Y-118246562D01*
X132419119Y-118227016D01*
X132430634Y-118209770D01*
X132486190Y-118154680D01*
X132553980Y-118122822D01*
X132627713Y-118115191D01*
X132701093Y-118132780D01*
G36*
X132701093Y-118132780D02*
G01*
X132747672Y-118159723D01*
X132780057Y-118186466D01*
X132803742Y-118214484D01*
X132820059Y-118248748D01*
X132830339Y-118294227D01*
X132835914Y-118355892D01*
X132838116Y-118438711D01*
X132838371Y-118498246D01*
X132838371Y-118717391D01*
X132776686Y-118745044D01*
X132715000Y-118772697D01*
X132707743Y-118532670D01*
X132704744Y-118443028D01*
X132701598Y-118377962D01*
X132697701Y-118333026D01*
X132692447Y-118303770D01*
X132685231Y-118285748D01*
X132675450Y-118274511D01*
X132672312Y-118272079D01*
X132624761Y-118253083D01*
X132576697Y-118260600D01*
X132548086Y-118280543D01*
X132536447Y-118294675D01*
X132528391Y-118313220D01*
X132523271Y-118341334D01*
X132520441Y-118384173D01*
X132519256Y-118446895D01*
X132519057Y-118512261D01*
X132519018Y-118594268D01*
X132517614Y-118652316D01*
X132512914Y-118691465D01*
X132502987Y-118716780D01*
X132485903Y-118733323D01*
X132459732Y-118746156D01*
X132424775Y-118759491D01*
X132386596Y-118774007D01*
X132391141Y-118516389D01*
X132392971Y-118423519D01*
X132395112Y-118354889D01*
X132398181Y-118305711D01*
X132402794Y-118271198D01*
X132409568Y-118246562D01*
X132419119Y-118227016D01*
X132430634Y-118209770D01*
X132486190Y-118154680D01*
X132553980Y-118122822D01*
X132627713Y-118115191D01*
X132701093Y-118132780D01*
G37*
X134514926Y-118154755D02*
X134580858Y-118179084D01*
X134634273Y-118222117D01*
X134655164Y-118252409D01*
X134677939Y-118307994D01*
X134677466Y-118348186D01*
X134653562Y-118375217D01*
X134644717Y-118379813D01*
X134606530Y-118394144D01*
X134587028Y-118390472D01*
X134580422Y-118366407D01*
X134580086Y-118353114D01*
X134567992Y-118304210D01*
X134536471Y-118269999D01*
X134492659Y-118253476D01*
X134443695Y-118257634D01*
X134403894Y-118279227D01*
X134390450Y-118291544D01*
X134380921Y-118306487D01*
X134374485Y-118329075D01*
X134370317Y-118364328D01*
X134367597Y-118417266D01*
X134365502Y-118492907D01*
X134364960Y-118516857D01*
X134362981Y-118598790D01*
X134360731Y-118656455D01*
X134357357Y-118694608D01*
X134352006Y-118718004D01*
X134343824Y-118731398D01*
X134331959Y-118739545D01*
X134324362Y-118743144D01*
X134292102Y-118755452D01*
X134273111Y-118759514D01*
X134266836Y-118745948D01*
X134263006Y-118704934D01*
X134261600Y-118635999D01*
X134262598Y-118538669D01*
X134262908Y-118523657D01*
X134265101Y-118434859D01*
X134267693Y-118370019D01*
X134271382Y-118324067D01*
X134276864Y-118291935D01*
X134284835Y-118268553D01*
X134295993Y-118248852D01*
X134301830Y-118240410D01*
X134335296Y-118203057D01*
X134372727Y-118174003D01*
X134377309Y-118171467D01*
X134444426Y-118151443D01*
X134514926Y-118154755D01*
G36*
X134514926Y-118154755D02*
G01*
X134580858Y-118179084D01*
X134634273Y-118222117D01*
X134655164Y-118252409D01*
X134677939Y-118307994D01*
X134677466Y-118348186D01*
X134653562Y-118375217D01*
X134644717Y-118379813D01*
X134606530Y-118394144D01*
X134587028Y-118390472D01*
X134580422Y-118366407D01*
X134580086Y-118353114D01*
X134567992Y-118304210D01*
X134536471Y-118269999D01*
X134492659Y-118253476D01*
X134443695Y-118257634D01*
X134403894Y-118279227D01*
X134390450Y-118291544D01*
X134380921Y-118306487D01*
X134374485Y-118329075D01*
X134370317Y-118364328D01*
X134367597Y-118417266D01*
X134365502Y-118492907D01*
X134364960Y-118516857D01*
X134362981Y-118598790D01*
X134360731Y-118656455D01*
X134357357Y-118694608D01*
X134352006Y-118718004D01*
X134343824Y-118731398D01*
X134331959Y-118739545D01*
X134324362Y-118743144D01*
X134292102Y-118755452D01*
X134273111Y-118759514D01*
X134266836Y-118745948D01*
X134263006Y-118704934D01*
X134261600Y-118635999D01*
X134262598Y-118538669D01*
X134262908Y-118523657D01*
X134265101Y-118434859D01*
X134267693Y-118370019D01*
X134271382Y-118324067D01*
X134276864Y-118291935D01*
X134284835Y-118268553D01*
X134295993Y-118248852D01*
X134301830Y-118240410D01*
X134335296Y-118203057D01*
X134372727Y-118174003D01*
X134377309Y-118171467D01*
X134444426Y-118151443D01*
X134514926Y-118154755D01*
G37*
X133360886Y-118056289D02*
X133365139Y-118115613D01*
X133370025Y-118150572D01*
X133376795Y-118165820D01*
X133386702Y-118166015D01*
X133389914Y-118164195D01*
X133432644Y-118151015D01*
X133488227Y-118151785D01*
X133544737Y-118165333D01*
X133580082Y-118182861D01*
X133616321Y-118210861D01*
X133642813Y-118242549D01*
X133660999Y-118282813D01*
X133672322Y-118336543D01*
X133678222Y-118408626D01*
X133680143Y-118503951D01*
X133680177Y-118522237D01*
X133680200Y-118727646D01*
X133634491Y-118743580D01*
X133602027Y-118754420D01*
X133584215Y-118759468D01*
X133583691Y-118759514D01*
X133581937Y-118745828D01*
X133580444Y-118708076D01*
X133579326Y-118651224D01*
X133578697Y-118580234D01*
X133578600Y-118537073D01*
X133578398Y-118451973D01*
X133577358Y-118390981D01*
X133574831Y-118349177D01*
X133570164Y-118321642D01*
X133562707Y-118303456D01*
X133551811Y-118289698D01*
X133545007Y-118283073D01*
X133498272Y-118256375D01*
X133447272Y-118254375D01*
X133401001Y-118276955D01*
X133392444Y-118285107D01*
X133379893Y-118300436D01*
X133371188Y-118318618D01*
X133365631Y-118344909D01*
X133362526Y-118384562D01*
X133361176Y-118442832D01*
X133360886Y-118523173D01*
X133360886Y-118727646D01*
X133315177Y-118743580D01*
X133282713Y-118754420D01*
X133264901Y-118759468D01*
X133264377Y-118759514D01*
X133263037Y-118745623D01*
X133261828Y-118706439D01*
X133260801Y-118645700D01*
X133260002Y-118567141D01*
X133259481Y-118474498D01*
X133259286Y-118371509D01*
X133259286Y-117974342D01*
X133306457Y-117954444D01*
X133353629Y-117934547D01*
X133360886Y-118056289D01*
G36*
X133360886Y-118056289D02*
G01*
X133365139Y-118115613D01*
X133370025Y-118150572D01*
X133376795Y-118165820D01*
X133386702Y-118166015D01*
X133389914Y-118164195D01*
X133432644Y-118151015D01*
X133488227Y-118151785D01*
X133544737Y-118165333D01*
X133580082Y-118182861D01*
X133616321Y-118210861D01*
X133642813Y-118242549D01*
X133660999Y-118282813D01*
X133672322Y-118336543D01*
X133678222Y-118408626D01*
X133680143Y-118503951D01*
X133680177Y-118522237D01*
X133680200Y-118727646D01*
X133634491Y-118743580D01*
X133602027Y-118754420D01*
X133584215Y-118759468D01*
X133583691Y-118759514D01*
X133581937Y-118745828D01*
X133580444Y-118708076D01*
X133579326Y-118651224D01*
X133578697Y-118580234D01*
X133578600Y-118537073D01*
X133578398Y-118451973D01*
X133577358Y-118390981D01*
X133574831Y-118349177D01*
X133570164Y-118321642D01*
X133562707Y-118303456D01*
X133551811Y-118289698D01*
X133545007Y-118283073D01*
X133498272Y-118256375D01*
X133447272Y-118254375D01*
X133401001Y-118276955D01*
X133392444Y-118285107D01*
X133379893Y-118300436D01*
X133371188Y-118318618D01*
X133365631Y-118344909D01*
X133362526Y-118384562D01*
X133361176Y-118442832D01*
X133360886Y-118523173D01*
X133360886Y-118727646D01*
X133315177Y-118743580D01*
X133282713Y-118754420D01*
X133264901Y-118759468D01*
X133264377Y-118759514D01*
X133263037Y-118745623D01*
X133261828Y-118706439D01*
X133260801Y-118645700D01*
X133260002Y-118567141D01*
X133259481Y-118474498D01*
X133259286Y-118371509D01*
X133259286Y-117974342D01*
X133306457Y-117954444D01*
X133353629Y-117934547D01*
X133360886Y-118056289D01*
G37*
X135764833Y-118163663D02*
X135767048Y-118201850D01*
X135768784Y-118259886D01*
X135769899Y-118333180D01*
X135770257Y-118410055D01*
X135770257Y-118670196D01*
X135724326Y-118716127D01*
X135692675Y-118744429D01*
X135664890Y-118755893D01*
X135626915Y-118755168D01*
X135611840Y-118753321D01*
X135564726Y-118747948D01*
X135525756Y-118744869D01*
X135516257Y-118744585D01*
X135484233Y-118746445D01*
X135438432Y-118751114D01*
X135420674Y-118753321D01*
X135377057Y-118756735D01*
X135347745Y-118749320D01*
X135318680Y-118726427D01*
X135308188Y-118716127D01*
X135262257Y-118670196D01*
X135262257Y-118183602D01*
X135299226Y-118166758D01*
X135331059Y-118154282D01*
X135349683Y-118149914D01*
X135354458Y-118163718D01*
X135358921Y-118202286D01*
X135362775Y-118261356D01*
X135365722Y-118336663D01*
X135367143Y-118400286D01*
X135371114Y-118650657D01*
X135405759Y-118655556D01*
X135437268Y-118652131D01*
X135452708Y-118641041D01*
X135457023Y-118620308D01*
X135460708Y-118576145D01*
X135463469Y-118514146D01*
X135465012Y-118439909D01*
X135465235Y-118401706D01*
X135465457Y-118181783D01*
X135511166Y-118165849D01*
X135543518Y-118155015D01*
X135561115Y-118149962D01*
X135561623Y-118149914D01*
X135563388Y-118163648D01*
X135565329Y-118201730D01*
X135567282Y-118259482D01*
X135569084Y-118332227D01*
X135570343Y-118400286D01*
X135574314Y-118650657D01*
X135661400Y-118650657D01*
X135665396Y-118422240D01*
X135669392Y-118193822D01*
X135711847Y-118171868D01*
X135743192Y-118156793D01*
X135761744Y-118149951D01*
X135762279Y-118149914D01*
X135764833Y-118163663D01*
G36*
X135764833Y-118163663D02*
G01*
X135767048Y-118201850D01*
X135768784Y-118259886D01*
X135769899Y-118333180D01*
X135770257Y-118410055D01*
X135770257Y-118670196D01*
X135724326Y-118716127D01*
X135692675Y-118744429D01*
X135664890Y-118755893D01*
X135626915Y-118755168D01*
X135611840Y-118753321D01*
X135564726Y-118747948D01*
X135525756Y-118744869D01*
X135516257Y-118744585D01*
X135484233Y-118746445D01*
X135438432Y-118751114D01*
X135420674Y-118753321D01*
X135377057Y-118756735D01*
X135347745Y-118749320D01*
X135318680Y-118726427D01*
X135308188Y-118716127D01*
X135262257Y-118670196D01*
X135262257Y-118183602D01*
X135299226Y-118166758D01*
X135331059Y-118154282D01*
X135349683Y-118149914D01*
X135354458Y-118163718D01*
X135358921Y-118202286D01*
X135362775Y-118261356D01*
X135365722Y-118336663D01*
X135367143Y-118400286D01*
X135371114Y-118650657D01*
X135405759Y-118655556D01*
X135437268Y-118652131D01*
X135452708Y-118641041D01*
X135457023Y-118620308D01*
X135460708Y-118576145D01*
X135463469Y-118514146D01*
X135465012Y-118439909D01*
X135465235Y-118401706D01*
X135465457Y-118181783D01*
X135511166Y-118165849D01*
X135543518Y-118155015D01*
X135561115Y-118149962D01*
X135561623Y-118149914D01*
X135563388Y-118163648D01*
X135565329Y-118201730D01*
X135567282Y-118259482D01*
X135569084Y-118332227D01*
X135570343Y-118400286D01*
X135574314Y-118650657D01*
X135661400Y-118650657D01*
X135665396Y-118422240D01*
X135669392Y-118193822D01*
X135711847Y-118171868D01*
X135743192Y-118156793D01*
X135761744Y-118149951D01*
X135762279Y-118149914D01*
X135764833Y-118163663D01*
G37*
X131026115Y-118126962D02*
X131094145Y-118162733D01*
X131144351Y-118220301D01*
X131162185Y-118257312D01*
X131176063Y-118312882D01*
X131183167Y-118383096D01*
X131183840Y-118459727D01*
X131178427Y-118534552D01*
X131167270Y-118599342D01*
X131150714Y-118645873D01*
X131145626Y-118653887D01*
X131085355Y-118713707D01*
X131013769Y-118749535D01*
X130936092Y-118760020D01*
X130857548Y-118743810D01*
X130835689Y-118734092D01*
X130793122Y-118704143D01*
X130755763Y-118664433D01*
X130752232Y-118659397D01*
X130737881Y-118635124D01*
X130728394Y-118609178D01*
X130722790Y-118575022D01*
X130720086Y-118526119D01*
X130719299Y-118455935D01*
X130719286Y-118440200D01*
X130719322Y-118435192D01*
X130864429Y-118435192D01*
X130865273Y-118501430D01*
X130868596Y-118545386D01*
X130875583Y-118573779D01*
X130887416Y-118593325D01*
X130893457Y-118599857D01*
X130928186Y-118624680D01*
X130961903Y-118623548D01*
X130995995Y-118602016D01*
X131016329Y-118579029D01*
X131028371Y-118545478D01*
X131035134Y-118492569D01*
X131035598Y-118486399D01*
X131036752Y-118390513D01*
X131024688Y-118319299D01*
X130999570Y-118273194D01*
X130961560Y-118252635D01*
X130947992Y-118251514D01*
X130912364Y-118257152D01*
X130887994Y-118276686D01*
X130873093Y-118314042D01*
X130865875Y-118373150D01*
X130864429Y-118435192D01*
X130719322Y-118435192D01*
X130719826Y-118365413D01*
X130722096Y-118313159D01*
X130727068Y-118276949D01*
X130735713Y-118250299D01*
X130749005Y-118226722D01*
X130751943Y-118222338D01*
X130801313Y-118163249D01*
X130855109Y-118128947D01*
X130920602Y-118115331D01*
X130942842Y-118114665D01*
X131026115Y-118126962D01*
G36*
X131026115Y-118126962D02*
G01*
X131094145Y-118162733D01*
X131144351Y-118220301D01*
X131162185Y-118257312D01*
X131176063Y-118312882D01*
X131183167Y-118383096D01*
X131183840Y-118459727D01*
X131178427Y-118534552D01*
X131167270Y-118599342D01*
X131150714Y-118645873D01*
X131145626Y-118653887D01*
X131085355Y-118713707D01*
X131013769Y-118749535D01*
X130936092Y-118760020D01*
X130857548Y-118743810D01*
X130835689Y-118734092D01*
X130793122Y-118704143D01*
X130755763Y-118664433D01*
X130752232Y-118659397D01*
X130737881Y-118635124D01*
X130728394Y-118609178D01*
X130722790Y-118575022D01*
X130720086Y-118526119D01*
X130719299Y-118455935D01*
X130719286Y-118440200D01*
X130719322Y-118435192D01*
X130864429Y-118435192D01*
X130865273Y-118501430D01*
X130868596Y-118545386D01*
X130875583Y-118573779D01*
X130887416Y-118593325D01*
X130893457Y-118599857D01*
X130928186Y-118624680D01*
X130961903Y-118623548D01*
X130995995Y-118602016D01*
X131016329Y-118579029D01*
X131028371Y-118545478D01*
X131035134Y-118492569D01*
X131035598Y-118486399D01*
X131036752Y-118390513D01*
X131024688Y-118319299D01*
X130999570Y-118273194D01*
X130961560Y-118252635D01*
X130947992Y-118251514D01*
X130912364Y-118257152D01*
X130887994Y-118276686D01*
X130873093Y-118314042D01*
X130865875Y-118373150D01*
X130864429Y-118435192D01*
X130719322Y-118435192D01*
X130719826Y-118365413D01*
X130722096Y-118313159D01*
X130727068Y-118276949D01*
X130735713Y-118250299D01*
X130749005Y-118226722D01*
X130751943Y-118222338D01*
X130801313Y-118163249D01*
X130855109Y-118128947D01*
X130920602Y-118115331D01*
X130942842Y-118114665D01*
X131026115Y-118126962D01*
G37*
X137138595Y-118171966D02*
X137196021Y-118209497D01*
X137223719Y-118243096D01*
X137245662Y-118304064D01*
X137247405Y-118352308D01*
X137243457Y-118416816D01*
X137094686Y-118481934D01*
X137022349Y-118515202D01*
X136975084Y-118541964D01*
X136950507Y-118565144D01*
X136946237Y-118587667D01*
X136959889Y-118612455D01*
X136974943Y-118628886D01*
X137018746Y-118655235D01*
X137066389Y-118657081D01*
X137110145Y-118636546D01*
X137142289Y-118595752D01*
X137148038Y-118581347D01*
X137175576Y-118536356D01*
X137207258Y-118517182D01*
X137250714Y-118500779D01*
X137250714Y-118562966D01*
X137246872Y-118605283D01*
X137231823Y-118640969D01*
X137200280Y-118681943D01*
X137195592Y-118687267D01*
X137160506Y-118723720D01*
X137130347Y-118743283D01*
X137092615Y-118752283D01*
X137061335Y-118755230D01*
X137005385Y-118755965D01*
X136965555Y-118746660D01*
X136940708Y-118732846D01*
X136901656Y-118702467D01*
X136874625Y-118669613D01*
X136857517Y-118628294D01*
X136848238Y-118572521D01*
X136844693Y-118496305D01*
X136844410Y-118457622D01*
X136845372Y-118411247D01*
X136933007Y-118411247D01*
X136934023Y-118436126D01*
X136936556Y-118440200D01*
X136953274Y-118434665D01*
X136989249Y-118420017D01*
X137037331Y-118399190D01*
X137047386Y-118394714D01*
X137108152Y-118363814D01*
X137141632Y-118336657D01*
X137148990Y-118311220D01*
X137131391Y-118285481D01*
X137116856Y-118274109D01*
X137064410Y-118251364D01*
X137015322Y-118255122D01*
X136974227Y-118282884D01*
X136945758Y-118332152D01*
X136936631Y-118371257D01*
X136933007Y-118411247D01*
X136845372Y-118411247D01*
X136846285Y-118367249D01*
X136853196Y-118300384D01*
X136866884Y-118251695D01*
X136889096Y-118215849D01*
X136921574Y-118187513D01*
X136935733Y-118178355D01*
X137000053Y-118154507D01*
X137070473Y-118153006D01*
X137138595Y-118171966D01*
G36*
X137138595Y-118171966D02*
G01*
X137196021Y-118209497D01*
X137223719Y-118243096D01*
X137245662Y-118304064D01*
X137247405Y-118352308D01*
X137243457Y-118416816D01*
X137094686Y-118481934D01*
X137022349Y-118515202D01*
X136975084Y-118541964D01*
X136950507Y-118565144D01*
X136946237Y-118587667D01*
X136959889Y-118612455D01*
X136974943Y-118628886D01*
X137018746Y-118655235D01*
X137066389Y-118657081D01*
X137110145Y-118636546D01*
X137142289Y-118595752D01*
X137148038Y-118581347D01*
X137175576Y-118536356D01*
X137207258Y-118517182D01*
X137250714Y-118500779D01*
X137250714Y-118562966D01*
X137246872Y-118605283D01*
X137231823Y-118640969D01*
X137200280Y-118681943D01*
X137195592Y-118687267D01*
X137160506Y-118723720D01*
X137130347Y-118743283D01*
X137092615Y-118752283D01*
X137061335Y-118755230D01*
X137005385Y-118755965D01*
X136965555Y-118746660D01*
X136940708Y-118732846D01*
X136901656Y-118702467D01*
X136874625Y-118669613D01*
X136857517Y-118628294D01*
X136848238Y-118572521D01*
X136844693Y-118496305D01*
X136844410Y-118457622D01*
X136845372Y-118411247D01*
X136933007Y-118411247D01*
X136934023Y-118436126D01*
X136936556Y-118440200D01*
X136953274Y-118434665D01*
X136989249Y-118420017D01*
X137037331Y-118399190D01*
X137047386Y-118394714D01*
X137108152Y-118363814D01*
X137141632Y-118336657D01*
X137148990Y-118311220D01*
X137131391Y-118285481D01*
X137116856Y-118274109D01*
X137064410Y-118251364D01*
X137015322Y-118255122D01*
X136974227Y-118282884D01*
X136945758Y-118332152D01*
X136936631Y-118371257D01*
X136933007Y-118411247D01*
X136845372Y-118411247D01*
X136846285Y-118367249D01*
X136853196Y-118300384D01*
X136866884Y-118251695D01*
X136889096Y-118215849D01*
X136921574Y-118187513D01*
X136935733Y-118178355D01*
X137000053Y-118154507D01*
X137070473Y-118153006D01*
X137138595Y-118171966D01*
G37*
X135175117Y-118270358D02*
X135174933Y-118378837D01*
X135174219Y-118462287D01*
X135172675Y-118524704D01*
X135170001Y-118570085D01*
X135165894Y-118602429D01*
X135160055Y-118625733D01*
X135152182Y-118643995D01*
X135146221Y-118654418D01*
X135096855Y-118710945D01*
X135034264Y-118746377D01*
X134965013Y-118759090D01*
X134895668Y-118747463D01*
X134854375Y-118726568D01*
X134811025Y-118690422D01*
X134781481Y-118646276D01*
X134763655Y-118588462D01*
X134755463Y-118511313D01*
X134754302Y-118454714D01*
X134754458Y-118450647D01*
X134855857Y-118450647D01*
X134856476Y-118515550D01*
X134859314Y-118558514D01*
X134865840Y-118586622D01*
X134877523Y-118606953D01*
X134891483Y-118622288D01*
X134938365Y-118651890D01*
X134988701Y-118654419D01*
X135036276Y-118629705D01*
X135039979Y-118626356D01*
X135055783Y-118608935D01*
X135065693Y-118588209D01*
X135071058Y-118557362D01*
X135073228Y-118509577D01*
X135073571Y-118456748D01*
X135072827Y-118390381D01*
X135069748Y-118346106D01*
X135063061Y-118317009D01*
X135051496Y-118296173D01*
X135042013Y-118285107D01*
X134997960Y-118257198D01*
X134947224Y-118253843D01*
X134898796Y-118275159D01*
X134889450Y-118283073D01*
X134873540Y-118300647D01*
X134863610Y-118321587D01*
X134858278Y-118352782D01*
X134856163Y-118401122D01*
X134855857Y-118450647D01*
X134754458Y-118450647D01*
X134757810Y-118363568D01*
X134769726Y-118295086D01*
X134792135Y-118243600D01*
X134827124Y-118203443D01*
X134854375Y-118182861D01*
X134903907Y-118160625D01*
X134961316Y-118150304D01*
X135014682Y-118153067D01*
X135044543Y-118164212D01*
X135056261Y-118167383D01*
X135064037Y-118155557D01*
X135069465Y-118123866D01*
X135073571Y-118075593D01*
X135078067Y-118021829D01*
X135084313Y-117989482D01*
X135095676Y-117970985D01*
X135115528Y-117958770D01*
X135128000Y-117953362D01*
X135175171Y-117933601D01*
X135175117Y-118270358D01*
G36*
X135175117Y-118270358D02*
G01*
X135174933Y-118378837D01*
X135174219Y-118462287D01*
X135172675Y-118524704D01*
X135170001Y-118570085D01*
X135165894Y-118602429D01*
X135160055Y-118625733D01*
X135152182Y-118643995D01*
X135146221Y-118654418D01*
X135096855Y-118710945D01*
X135034264Y-118746377D01*
X134965013Y-118759090D01*
X134895668Y-118747463D01*
X134854375Y-118726568D01*
X134811025Y-118690422D01*
X134781481Y-118646276D01*
X134763655Y-118588462D01*
X134755463Y-118511313D01*
X134754302Y-118454714D01*
X134754458Y-118450647D01*
X134855857Y-118450647D01*
X134856476Y-118515550D01*
X134859314Y-118558514D01*
X134865840Y-118586622D01*
X134877523Y-118606953D01*
X134891483Y-118622288D01*
X134938365Y-118651890D01*
X134988701Y-118654419D01*
X135036276Y-118629705D01*
X135039979Y-118626356D01*
X135055783Y-118608935D01*
X135065693Y-118588209D01*
X135071058Y-118557362D01*
X135073228Y-118509577D01*
X135073571Y-118456748D01*
X135072827Y-118390381D01*
X135069748Y-118346106D01*
X135063061Y-118317009D01*
X135051496Y-118296173D01*
X135042013Y-118285107D01*
X134997960Y-118257198D01*
X134947224Y-118253843D01*
X134898796Y-118275159D01*
X134889450Y-118283073D01*
X134873540Y-118300647D01*
X134863610Y-118321587D01*
X134858278Y-118352782D01*
X134856163Y-118401122D01*
X134855857Y-118450647D01*
X134754458Y-118450647D01*
X134757810Y-118363568D01*
X134769726Y-118295086D01*
X134792135Y-118243600D01*
X134827124Y-118203443D01*
X134854375Y-118182861D01*
X134903907Y-118160625D01*
X134961316Y-118150304D01*
X135014682Y-118153067D01*
X135044543Y-118164212D01*
X135056261Y-118167383D01*
X135064037Y-118155557D01*
X135069465Y-118123866D01*
X135073571Y-118075593D01*
X135078067Y-118021829D01*
X135084313Y-117989482D01*
X135095676Y-117970985D01*
X135115528Y-117958770D01*
X135128000Y-117953362D01*
X135175171Y-117933601D01*
X135175117Y-118270358D01*
G37*
X132153303Y-118136239D02*
X132210527Y-118174735D01*
X132254749Y-118230335D01*
X132281167Y-118301086D01*
X132286510Y-118353162D01*
X132285903Y-118374893D01*
X132280822Y-118391531D01*
X132266855Y-118406437D01*
X132239589Y-118422973D01*
X132194612Y-118444498D01*
X132127511Y-118474374D01*
X132127171Y-118474524D01*
X132065407Y-118502813D01*
X132014759Y-118527933D01*
X131980404Y-118547179D01*
X131967518Y-118557848D01*
X131967514Y-118557934D01*
X131978872Y-118581166D01*
X132005431Y-118606774D01*
X132035923Y-118625221D01*
X132051370Y-118628886D01*
X132093515Y-118616212D01*
X132129808Y-118584471D01*
X132147517Y-118549572D01*
X132164552Y-118523845D01*
X132197922Y-118494546D01*
X132237149Y-118469235D01*
X132271756Y-118455471D01*
X132278993Y-118454714D01*
X132287139Y-118467160D01*
X132287630Y-118498972D01*
X132281643Y-118541866D01*
X132270357Y-118587558D01*
X132254950Y-118627761D01*
X132254171Y-118629322D01*
X132207804Y-118694062D01*
X132147711Y-118738097D01*
X132079465Y-118759711D01*
X132008638Y-118757185D01*
X131940804Y-118728804D01*
X131937788Y-118726808D01*
X131884427Y-118678448D01*
X131849340Y-118615352D01*
X131829922Y-118532387D01*
X131827316Y-118509078D01*
X131822701Y-118399055D01*
X131828233Y-118347748D01*
X131967514Y-118347748D01*
X131969324Y-118379753D01*
X131979222Y-118389093D01*
X132003898Y-118382105D01*
X132042795Y-118365587D01*
X132086275Y-118344881D01*
X132087356Y-118344333D01*
X132124209Y-118324949D01*
X132139000Y-118312013D01*
X132135353Y-118298451D01*
X132119995Y-118280632D01*
X132080923Y-118254845D01*
X132038846Y-118252950D01*
X132001103Y-118271717D01*
X131975034Y-118307915D01*
X131967514Y-118347748D01*
X131828233Y-118347748D01*
X131832194Y-118311027D01*
X131856550Y-118241212D01*
X131890456Y-118192302D01*
X131951653Y-118142878D01*
X132019063Y-118118359D01*
X132087880Y-118116797D01*
X132153303Y-118136239D01*
G36*
X132153303Y-118136239D02*
G01*
X132210527Y-118174735D01*
X132254749Y-118230335D01*
X132281167Y-118301086D01*
X132286510Y-118353162D01*
X132285903Y-118374893D01*
X132280822Y-118391531D01*
X132266855Y-118406437D01*
X132239589Y-118422973D01*
X132194612Y-118444498D01*
X132127511Y-118474374D01*
X132127171Y-118474524D01*
X132065407Y-118502813D01*
X132014759Y-118527933D01*
X131980404Y-118547179D01*
X131967518Y-118557848D01*
X131967514Y-118557934D01*
X131978872Y-118581166D01*
X132005431Y-118606774D01*
X132035923Y-118625221D01*
X132051370Y-118628886D01*
X132093515Y-118616212D01*
X132129808Y-118584471D01*
X132147517Y-118549572D01*
X132164552Y-118523845D01*
X132197922Y-118494546D01*
X132237149Y-118469235D01*
X132271756Y-118455471D01*
X132278993Y-118454714D01*
X132287139Y-118467160D01*
X132287630Y-118498972D01*
X132281643Y-118541866D01*
X132270357Y-118587558D01*
X132254950Y-118627761D01*
X132254171Y-118629322D01*
X132207804Y-118694062D01*
X132147711Y-118738097D01*
X132079465Y-118759711D01*
X132008638Y-118757185D01*
X131940804Y-118728804D01*
X131937788Y-118726808D01*
X131884427Y-118678448D01*
X131849340Y-118615352D01*
X131829922Y-118532387D01*
X131827316Y-118509078D01*
X131822701Y-118399055D01*
X131828233Y-118347748D01*
X131967514Y-118347748D01*
X131969324Y-118379753D01*
X131979222Y-118389093D01*
X132003898Y-118382105D01*
X132042795Y-118365587D01*
X132086275Y-118344881D01*
X132087356Y-118344333D01*
X132124209Y-118324949D01*
X132139000Y-118312013D01*
X132135353Y-118298451D01*
X132119995Y-118280632D01*
X132080923Y-118254845D01*
X132038846Y-118252950D01*
X132001103Y-118271717D01*
X131975034Y-118307915D01*
X131967514Y-118347748D01*
X131828233Y-118347748D01*
X131832194Y-118311027D01*
X131856550Y-118241212D01*
X131890456Y-118192302D01*
X131951653Y-118142878D01*
X132019063Y-118118359D01*
X132087880Y-118116797D01*
X132153303Y-118136239D01*
G37*
X134024744Y-118155968D02*
X134081616Y-118177087D01*
X134082267Y-118177493D01*
X134117440Y-118203380D01*
X134143407Y-118233633D01*
X134161670Y-118273058D01*
X134173732Y-118326462D01*
X134181096Y-118398651D01*
X134185264Y-118494432D01*
X134185629Y-118508078D01*
X134190876Y-118713842D01*
X134146716Y-118736678D01*
X134114763Y-118752110D01*
X134095470Y-118759423D01*
X134094578Y-118759514D01*
X134091239Y-118746022D01*
X134088587Y-118709626D01*
X134086956Y-118656452D01*
X134086600Y-118613393D01*
X134086592Y-118543641D01*
X134083403Y-118499837D01*
X134072288Y-118478944D01*
X134048501Y-118477925D01*
X134007296Y-118493741D01*
X133945086Y-118522815D01*
X133899341Y-118546963D01*
X133875813Y-118567913D01*
X133868896Y-118590747D01*
X133868886Y-118591877D01*
X133880299Y-118631212D01*
X133914092Y-118652462D01*
X133965809Y-118655539D01*
X134003061Y-118655006D01*
X134022703Y-118665735D01*
X134034952Y-118691505D01*
X134042002Y-118724337D01*
X134031842Y-118742966D01*
X134028017Y-118745632D01*
X133992001Y-118756340D01*
X133941566Y-118757856D01*
X133889626Y-118750759D01*
X133852822Y-118737788D01*
X133801938Y-118694585D01*
X133773014Y-118634446D01*
X133767286Y-118587462D01*
X133771657Y-118545082D01*
X133787475Y-118510488D01*
X133818797Y-118479763D01*
X133869678Y-118448990D01*
X133944176Y-118414252D01*
X133948714Y-118412288D01*
X134015821Y-118381287D01*
X134057232Y-118355862D01*
X134074981Y-118333014D01*
X134071107Y-118309745D01*
X134047643Y-118283056D01*
X134040627Y-118276914D01*
X133993630Y-118253100D01*
X133944933Y-118254103D01*
X133902522Y-118277451D01*
X133874384Y-118320675D01*
X133871769Y-118329160D01*
X133846308Y-118370308D01*
X133814001Y-118390128D01*
X133767286Y-118409770D01*
X133767286Y-118358950D01*
X133781496Y-118285082D01*
X133823675Y-118217327D01*
X133845624Y-118194661D01*
X133895517Y-118165569D01*
X133958967Y-118152400D01*
X134024744Y-118155968D01*
G36*
X134024744Y-118155968D02*
G01*
X134081616Y-118177087D01*
X134082267Y-118177493D01*
X134117440Y-118203380D01*
X134143407Y-118233633D01*
X134161670Y-118273058D01*
X134173732Y-118326462D01*
X134181096Y-118398651D01*
X134185264Y-118494432D01*
X134185629Y-118508078D01*
X134190876Y-118713842D01*
X134146716Y-118736678D01*
X134114763Y-118752110D01*
X134095470Y-118759423D01*
X134094578Y-118759514D01*
X134091239Y-118746022D01*
X134088587Y-118709626D01*
X134086956Y-118656452D01*
X134086600Y-118613393D01*
X134086592Y-118543641D01*
X134083403Y-118499837D01*
X134072288Y-118478944D01*
X134048501Y-118477925D01*
X134007296Y-118493741D01*
X133945086Y-118522815D01*
X133899341Y-118546963D01*
X133875813Y-118567913D01*
X133868896Y-118590747D01*
X133868886Y-118591877D01*
X133880299Y-118631212D01*
X133914092Y-118652462D01*
X133965809Y-118655539D01*
X134003061Y-118655006D01*
X134022703Y-118665735D01*
X134034952Y-118691505D01*
X134042002Y-118724337D01*
X134031842Y-118742966D01*
X134028017Y-118745632D01*
X133992001Y-118756340D01*
X133941566Y-118757856D01*
X133889626Y-118750759D01*
X133852822Y-118737788D01*
X133801938Y-118694585D01*
X133773014Y-118634446D01*
X133767286Y-118587462D01*
X133771657Y-118545082D01*
X133787475Y-118510488D01*
X133818797Y-118479763D01*
X133869678Y-118448990D01*
X133944176Y-118414252D01*
X133948714Y-118412288D01*
X134015821Y-118381287D01*
X134057232Y-118355862D01*
X134074981Y-118333014D01*
X134071107Y-118309745D01*
X134047643Y-118283056D01*
X134040627Y-118276914D01*
X133993630Y-118253100D01*
X133944933Y-118254103D01*
X133902522Y-118277451D01*
X133874384Y-118320675D01*
X133871769Y-118329160D01*
X133846308Y-118370308D01*
X133814001Y-118390128D01*
X133767286Y-118409770D01*
X133767286Y-118358950D01*
X133781496Y-118285082D01*
X133823675Y-118217327D01*
X133845624Y-118194661D01*
X133895517Y-118165569D01*
X133958967Y-118152400D01*
X134024744Y-118155968D01*
G37*
X131584744Y-118124918D02*
X131640201Y-118152568D01*
X131689148Y-118203480D01*
X131702629Y-118222338D01*
X131717314Y-118247015D01*
X131726842Y-118273816D01*
X131732293Y-118309587D01*
X131734747Y-118361169D01*
X131735286Y-118429267D01*
X131732852Y-118522588D01*
X131724394Y-118592657D01*
X131708174Y-118644931D01*
X131682454Y-118684869D01*
X131645497Y-118717929D01*
X131642782Y-118719886D01*
X131606360Y-118739908D01*
X131562502Y-118749815D01*
X131506724Y-118752257D01*
X131416048Y-118752257D01*
X131416010Y-118840283D01*
X131415166Y-118889308D01*
X131410024Y-118918065D01*
X131396587Y-118935311D01*
X131370858Y-118949808D01*
X131364679Y-118952769D01*
X131335764Y-118966648D01*
X131313376Y-118975414D01*
X131296729Y-118976171D01*
X131285036Y-118966023D01*
X131277510Y-118942073D01*
X131273366Y-118901426D01*
X131271815Y-118841186D01*
X131272071Y-118758455D01*
X131273349Y-118650339D01*
X131273748Y-118618000D01*
X131275185Y-118506524D01*
X131276472Y-118433603D01*
X131415971Y-118433603D01*
X131416755Y-118495499D01*
X131420240Y-118535997D01*
X131428124Y-118562708D01*
X131442105Y-118583244D01*
X131451597Y-118593260D01*
X131490404Y-118622567D01*
X131524763Y-118624952D01*
X131560216Y-118600750D01*
X131561114Y-118599857D01*
X131575539Y-118581153D01*
X131584313Y-118555732D01*
X131588739Y-118516584D01*
X131590118Y-118456697D01*
X131590143Y-118443430D01*
X131586812Y-118360901D01*
X131575969Y-118303691D01*
X131556340Y-118268766D01*
X131526650Y-118253094D01*
X131509491Y-118251514D01*
X131468766Y-118258926D01*
X131440832Y-118283330D01*
X131424017Y-118327980D01*
X131416650Y-118396130D01*
X131415971Y-118433603D01*
X131276472Y-118433603D01*
X131276708Y-118420245D01*
X131278677Y-118355333D01*
X131281450Y-118307958D01*
X131285388Y-118274290D01*
X131290849Y-118250498D01*
X131298192Y-118232753D01*
X131307777Y-118217224D01*
X131311887Y-118211381D01*
X131366405Y-118156185D01*
X131435336Y-118124890D01*
X131515072Y-118116165D01*
X131584744Y-118124918D01*
G36*
X131584744Y-118124918D02*
G01*
X131640201Y-118152568D01*
X131689148Y-118203480D01*
X131702629Y-118222338D01*
X131717314Y-118247015D01*
X131726842Y-118273816D01*
X131732293Y-118309587D01*
X131734747Y-118361169D01*
X131735286Y-118429267D01*
X131732852Y-118522588D01*
X131724394Y-118592657D01*
X131708174Y-118644931D01*
X131682454Y-118684869D01*
X131645497Y-118717929D01*
X131642782Y-118719886D01*
X131606360Y-118739908D01*
X131562502Y-118749815D01*
X131506724Y-118752257D01*
X131416048Y-118752257D01*
X131416010Y-118840283D01*
X131415166Y-118889308D01*
X131410024Y-118918065D01*
X131396587Y-118935311D01*
X131370858Y-118949808D01*
X131364679Y-118952769D01*
X131335764Y-118966648D01*
X131313376Y-118975414D01*
X131296729Y-118976171D01*
X131285036Y-118966023D01*
X131277510Y-118942073D01*
X131273366Y-118901426D01*
X131271815Y-118841186D01*
X131272071Y-118758455D01*
X131273349Y-118650339D01*
X131273748Y-118618000D01*
X131275185Y-118506524D01*
X131276472Y-118433603D01*
X131415971Y-118433603D01*
X131416755Y-118495499D01*
X131420240Y-118535997D01*
X131428124Y-118562708D01*
X131442105Y-118583244D01*
X131451597Y-118593260D01*
X131490404Y-118622567D01*
X131524763Y-118624952D01*
X131560216Y-118600750D01*
X131561114Y-118599857D01*
X131575539Y-118581153D01*
X131584313Y-118555732D01*
X131588739Y-118516584D01*
X131590118Y-118456697D01*
X131590143Y-118443430D01*
X131586812Y-118360901D01*
X131575969Y-118303691D01*
X131556340Y-118268766D01*
X131526650Y-118253094D01*
X131509491Y-118251514D01*
X131468766Y-118258926D01*
X131440832Y-118283330D01*
X131424017Y-118327980D01*
X131416650Y-118396130D01*
X131415971Y-118433603D01*
X131276472Y-118433603D01*
X131276708Y-118420245D01*
X131278677Y-118355333D01*
X131281450Y-118307958D01*
X131285388Y-118274290D01*
X131290849Y-118250498D01*
X131298192Y-118232753D01*
X131307777Y-118217224D01*
X131311887Y-118211381D01*
X131366405Y-118156185D01*
X131435336Y-118124890D01*
X131515072Y-118116165D01*
X131584744Y-118124918D01*
G37*
X136129876Y-118161335D02*
X136171667Y-118180344D01*
X136204469Y-118203378D01*
X136228503Y-118229133D01*
X136245097Y-118262358D01*
X136255577Y-118307800D01*
X136261271Y-118370207D01*
X136263507Y-118454327D01*
X136263743Y-118509721D01*
X136263743Y-118725826D01*
X136226774Y-118742670D01*
X136197656Y-118754981D01*
X136183231Y-118759514D01*
X136180472Y-118746025D01*
X136178282Y-118709653D01*
X136176942Y-118656542D01*
X136176657Y-118614372D01*
X136175434Y-118553447D01*
X136172136Y-118505115D01*
X136167321Y-118475518D01*
X136163496Y-118469229D01*
X136137783Y-118475652D01*
X136097418Y-118492125D01*
X136050679Y-118514458D01*
X136005845Y-118538457D01*
X135971193Y-118559930D01*
X135955002Y-118574685D01*
X135954938Y-118574845D01*
X135956330Y-118602152D01*
X135968818Y-118628219D01*
X135990743Y-118649392D01*
X136022743Y-118656474D01*
X136050092Y-118655649D01*
X136088826Y-118655042D01*
X136109158Y-118664116D01*
X136121369Y-118688092D01*
X136122909Y-118692613D01*
X136128203Y-118726806D01*
X136114047Y-118747568D01*
X136077148Y-118757462D01*
X136037289Y-118759292D01*
X135965562Y-118745727D01*
X135928432Y-118726355D01*
X135882576Y-118680845D01*
X135858256Y-118624983D01*
X135856073Y-118565957D01*
X135876629Y-118510953D01*
X135907549Y-118476486D01*
X135938420Y-118457189D01*
X135986942Y-118432759D01*
X136043485Y-118407985D01*
X136052910Y-118404199D01*
X136115019Y-118376791D01*
X136150822Y-118352634D01*
X136162337Y-118328619D01*
X136151580Y-118301635D01*
X136133114Y-118280543D01*
X136089469Y-118254572D01*
X136041446Y-118252624D01*
X135997406Y-118272637D01*
X135965709Y-118312551D01*
X135961549Y-118322848D01*
X135937327Y-118360724D01*
X135901965Y-118388842D01*
X135857343Y-118411917D01*
X135857343Y-118346485D01*
X135859969Y-118306506D01*
X135871230Y-118274997D01*
X135896199Y-118241378D01*
X135920169Y-118215484D01*
X135957441Y-118178817D01*
X135986401Y-118159121D01*
X136017505Y-118151220D01*
X136052713Y-118149914D01*
X136129876Y-118161335D01*
G36*
X136129876Y-118161335D02*
G01*
X136171667Y-118180344D01*
X136204469Y-118203378D01*
X136228503Y-118229133D01*
X136245097Y-118262358D01*
X136255577Y-118307800D01*
X136261271Y-118370207D01*
X136263507Y-118454327D01*
X136263743Y-118509721D01*
X136263743Y-118725826D01*
X136226774Y-118742670D01*
X136197656Y-118754981D01*
X136183231Y-118759514D01*
X136180472Y-118746025D01*
X136178282Y-118709653D01*
X136176942Y-118656542D01*
X136176657Y-118614372D01*
X136175434Y-118553447D01*
X136172136Y-118505115D01*
X136167321Y-118475518D01*
X136163496Y-118469229D01*
X136137783Y-118475652D01*
X136097418Y-118492125D01*
X136050679Y-118514458D01*
X136005845Y-118538457D01*
X135971193Y-118559930D01*
X135955002Y-118574685D01*
X135954938Y-118574845D01*
X135956330Y-118602152D01*
X135968818Y-118628219D01*
X135990743Y-118649392D01*
X136022743Y-118656474D01*
X136050092Y-118655649D01*
X136088826Y-118655042D01*
X136109158Y-118664116D01*
X136121369Y-118688092D01*
X136122909Y-118692613D01*
X136128203Y-118726806D01*
X136114047Y-118747568D01*
X136077148Y-118757462D01*
X136037289Y-118759292D01*
X135965562Y-118745727D01*
X135928432Y-118726355D01*
X135882576Y-118680845D01*
X135858256Y-118624983D01*
X135856073Y-118565957D01*
X135876629Y-118510953D01*
X135907549Y-118476486D01*
X135938420Y-118457189D01*
X135986942Y-118432759D01*
X136043485Y-118407985D01*
X136052910Y-118404199D01*
X136115019Y-118376791D01*
X136150822Y-118352634D01*
X136162337Y-118328619D01*
X136151580Y-118301635D01*
X136133114Y-118280543D01*
X136089469Y-118254572D01*
X136041446Y-118252624D01*
X135997406Y-118272637D01*
X135965709Y-118312551D01*
X135961549Y-118322848D01*
X135937327Y-118360724D01*
X135901965Y-118388842D01*
X135857343Y-118411917D01*
X135857343Y-118346485D01*
X135859969Y-118306506D01*
X135871230Y-118274997D01*
X135896199Y-118241378D01*
X135920169Y-118215484D01*
X135957441Y-118178817D01*
X135986401Y-118159121D01*
X136017505Y-118151220D01*
X136052713Y-118149914D01*
X136129876Y-118161335D01*
G37*
X134088910Y-113447348D02*
X134167454Y-113447778D01*
X134224298Y-113448942D01*
X134263105Y-113451207D01*
X134287538Y-113454940D01*
X134301262Y-113460506D01*
X134307940Y-113468273D01*
X134311236Y-113478605D01*
X134311556Y-113479943D01*
X134316562Y-113504079D01*
X134325829Y-113551701D01*
X134338392Y-113617741D01*
X134353287Y-113697128D01*
X134369551Y-113784796D01*
X134370119Y-113787875D01*
X134386410Y-113873789D01*
X134401652Y-113949696D01*
X134414861Y-114011045D01*
X134425054Y-114053282D01*
X134431248Y-114071855D01*
X134431543Y-114072184D01*
X134449788Y-114081253D01*
X134487405Y-114096367D01*
X134536271Y-114114262D01*
X134536543Y-114114358D01*
X134598093Y-114137493D01*
X134670657Y-114166965D01*
X134739057Y-114196597D01*
X134742294Y-114198062D01*
X134853702Y-114248626D01*
X135100399Y-114080160D01*
X135176077Y-114028803D01*
X135244631Y-113982889D01*
X135302088Y-113945030D01*
X135344476Y-113917837D01*
X135367825Y-113903921D01*
X135370042Y-113902889D01*
X135387010Y-113907484D01*
X135418701Y-113929655D01*
X135466352Y-113970447D01*
X135531198Y-114030905D01*
X135597397Y-114095227D01*
X135661214Y-114158612D01*
X135718329Y-114216451D01*
X135765305Y-114265175D01*
X135798703Y-114301210D01*
X135815085Y-114320984D01*
X135815694Y-114322002D01*
X135817505Y-114335572D01*
X135810683Y-114357733D01*
X135793540Y-114391478D01*
X135764393Y-114439800D01*
X135721555Y-114505692D01*
X135664448Y-114590517D01*
X135613766Y-114665177D01*
X135568461Y-114732140D01*
X135531150Y-114787516D01*
X135504452Y-114827420D01*
X135490985Y-114847962D01*
X135490137Y-114849356D01*
X135491781Y-114869038D01*
X135504245Y-114907293D01*
X135525048Y-114956889D01*
X135532462Y-114972728D01*
X135564814Y-115043290D01*
X135599328Y-115123353D01*
X135627365Y-115192629D01*
X135647568Y-115244045D01*
X135663615Y-115283119D01*
X135672888Y-115303541D01*
X135674041Y-115305114D01*
X135691096Y-115307721D01*
X135731298Y-115314863D01*
X135789302Y-115325523D01*
X135859763Y-115338685D01*
X135937335Y-115353333D01*
X136016672Y-115368449D01*
X136092431Y-115383018D01*
X136159264Y-115396022D01*
X136211828Y-115406445D01*
X136244776Y-115413270D01*
X136252857Y-115415199D01*
X136261205Y-115419962D01*
X136267506Y-115430718D01*
X136272045Y-115451098D01*
X136275104Y-115484734D01*
X136276967Y-115535255D01*
X136277918Y-115606292D01*
X136278240Y-115701476D01*
X136278257Y-115740492D01*
X136278257Y-116057799D01*
X136202057Y-116072839D01*
X136159663Y-116080995D01*
X136096400Y-116092899D01*
X136019962Y-116107116D01*
X135938043Y-116122210D01*
X135915400Y-116126355D01*
X135839806Y-116141053D01*
X135773953Y-116155505D01*
X135723366Y-116168375D01*
X135693574Y-116178322D01*
X135688612Y-116181287D01*
X135676426Y-116202283D01*
X135658953Y-116242967D01*
X135639577Y-116295322D01*
X135635734Y-116306600D01*
X135610339Y-116376523D01*
X135578817Y-116455418D01*
X135547969Y-116526266D01*
X135547817Y-116526595D01*
X135496447Y-116637733D01*
X135665399Y-116886253D01*
X135834352Y-117134772D01*
X135617429Y-117352058D01*
X135551819Y-117416726D01*
X135491979Y-117473733D01*
X135441267Y-117520033D01*
X135403046Y-117552584D01*
X135380675Y-117568343D01*
X135377466Y-117569343D01*
X135358626Y-117561469D01*
X135320180Y-117539578D01*
X135266330Y-117506267D01*
X135201276Y-117464131D01*
X135130940Y-117416943D01*
X135059555Y-117368810D01*
X134995908Y-117326928D01*
X134944041Y-117293871D01*
X134907995Y-117272218D01*
X134891867Y-117264543D01*
X134872189Y-117271037D01*
X134834875Y-117288150D01*
X134787621Y-117312326D01*
X134782612Y-117315013D01*
X134718977Y-117346927D01*
X134675341Y-117362579D01*
X134648202Y-117362745D01*
X134634057Y-117348204D01*
X134633975Y-117348000D01*
X134626905Y-117330779D01*
X134610042Y-117289899D01*
X134584695Y-117228525D01*
X134552171Y-117149819D01*
X134513778Y-117056947D01*
X134470822Y-116953072D01*
X134429222Y-116852502D01*
X134383504Y-116741516D01*
X134341526Y-116638703D01*
X134304548Y-116547215D01*
X134273827Y-116470201D01*
X134250622Y-116410815D01*
X134236190Y-116372209D01*
X134231743Y-116357800D01*
X134242896Y-116341272D01*
X134272069Y-116314930D01*
X134310971Y-116285887D01*
X134421757Y-116194039D01*
X134508351Y-116088759D01*
X134569716Y-115972266D01*
X134604815Y-115846776D01*
X134612608Y-115714507D01*
X134606943Y-115653457D01*
X134576078Y-115526795D01*
X134522920Y-115414941D01*
X134450767Y-115319001D01*
X134362917Y-115240076D01*
X134262665Y-115179270D01*
X134153310Y-115137687D01*
X134038147Y-115116428D01*
X133920475Y-115116599D01*
X133803590Y-115139301D01*
X133690789Y-115185638D01*
X133585369Y-115256713D01*
X133541368Y-115296911D01*
X133456979Y-115400129D01*
X133398222Y-115512925D01*
X133364704Y-115632010D01*
X133356035Y-115754095D01*
X133371823Y-115875893D01*
X133411678Y-115994116D01*
X133475207Y-116105475D01*
X133562021Y-116206684D01*
X133659029Y-116285887D01*
X133699437Y-116316162D01*
X133727982Y-116342219D01*
X133738257Y-116357825D01*
X133732877Y-116374843D01*
X133717575Y-116415500D01*
X133693612Y-116476642D01*
X133662244Y-116555119D01*
X133624732Y-116647780D01*
X133582333Y-116751472D01*
X133540663Y-116852526D01*
X133494690Y-116963607D01*
X133452107Y-117066541D01*
X133414221Y-117158165D01*
X133382340Y-117235316D01*
X133357771Y-117294831D01*
X133341820Y-117333544D01*
X133335910Y-117348000D01*
X133321948Y-117362685D01*
X133294940Y-117362642D01*
X133251413Y-117347099D01*
X133187890Y-117315284D01*
X133187388Y-117315013D01*
X133139560Y-117290323D01*
X133100897Y-117272338D01*
X133079095Y-117264614D01*
X133078133Y-117264543D01*
X133061721Y-117272378D01*
X133025487Y-117294165D01*
X132973474Y-117327328D01*
X132909725Y-117369291D01*
X132839060Y-117416943D01*
X132767116Y-117465191D01*
X132702274Y-117507151D01*
X132648735Y-117540227D01*
X132610697Y-117561821D01*
X132592533Y-117569343D01*
X132575808Y-117559457D01*
X132542180Y-117531826D01*
X132495010Y-117489495D01*
X132437658Y-117435505D01*
X132373484Y-117372899D01*
X132352497Y-117351983D01*
X132135499Y-117134623D01*
X132300668Y-116892220D01*
X132350864Y-116817781D01*
X132394919Y-116750972D01*
X132430362Y-116695665D01*
X132454719Y-116655729D01*
X132465522Y-116635036D01*
X132465838Y-116633563D01*
X132460143Y-116614058D01*
X132444826Y-116574822D01*
X132422537Y-116522430D01*
X132406893Y-116487355D01*
X132377641Y-116420201D01*
X132350094Y-116352358D01*
X132328737Y-116295034D01*
X132322935Y-116277572D01*
X132306452Y-116230938D01*
X132290340Y-116194905D01*
X132281490Y-116181287D01*
X132261960Y-116172952D01*
X132219334Y-116161137D01*
X132159145Y-116147181D01*
X132086922Y-116132422D01*
X132054600Y-116126355D01*
X131972522Y-116111273D01*
X131893795Y-116096669D01*
X131826109Y-116083980D01*
X131777160Y-116074642D01*
X131767943Y-116072839D01*
X131691743Y-116057799D01*
X131691743Y-115740492D01*
X131691914Y-115636154D01*
X131692616Y-115557213D01*
X131694134Y-115500038D01*
X131696749Y-115460999D01*
X131700746Y-115436465D01*
X131706409Y-115422805D01*
X131714020Y-115416389D01*
X131717143Y-115415199D01*
X131735978Y-115410980D01*
X131777588Y-115402562D01*
X131836630Y-115390961D01*
X131907757Y-115377195D01*
X131985625Y-115362280D01*
X132064887Y-115347232D01*
X132140198Y-115333069D01*
X132206213Y-115320806D01*
X132257587Y-115311461D01*
X132288975Y-115306050D01*
X132295959Y-115305114D01*
X132302285Y-115292596D01*
X132316290Y-115259246D01*
X132335355Y-115211377D01*
X132342634Y-115192629D01*
X132371996Y-115120195D01*
X132406571Y-115040170D01*
X132437537Y-114972728D01*
X132460323Y-114921159D01*
X132475482Y-114878785D01*
X132480542Y-114852834D01*
X132479736Y-114849356D01*
X132469041Y-114832936D01*
X132444620Y-114796417D01*
X132409095Y-114743687D01*
X132365087Y-114678635D01*
X132315217Y-114605151D01*
X132305356Y-114590645D01*
X132247492Y-114504704D01*
X132204956Y-114439261D01*
X132176054Y-114391304D01*
X132159090Y-114357820D01*
X132152367Y-114335795D01*
X132154190Y-114322217D01*
X132154236Y-114322131D01*
X132168586Y-114304297D01*
X132200323Y-114269817D01*
X132246010Y-114222268D01*
X132302204Y-114165222D01*
X132365468Y-114102255D01*
X132372602Y-114095227D01*
X132452330Y-114018020D01*
X132513857Y-113961330D01*
X132558421Y-113924110D01*
X132587257Y-113905315D01*
X132599958Y-113902889D01*
X132618494Y-113913471D01*
X132656961Y-113937916D01*
X132711386Y-113973612D01*
X132777798Y-114017947D01*
X132852225Y-114068311D01*
X132869601Y-114080160D01*
X133116297Y-114248626D01*
X133227706Y-114198062D01*
X133295457Y-114168595D01*
X133368183Y-114138959D01*
X133430703Y-114115330D01*
X133433457Y-114114358D01*
X133482360Y-114096457D01*
X133520057Y-114081320D01*
X133538425Y-114072210D01*
X133538456Y-114072184D01*
X133544285Y-114055717D01*
X133554192Y-114015219D01*
X133567195Y-113955242D01*
X133582309Y-113880340D01*
X133598552Y-113795064D01*
X133599881Y-113787875D01*
X133616175Y-113700014D01*
X133631133Y-113620260D01*
X133643791Y-113553681D01*
X133653186Y-113505347D01*
X133658354Y-113480325D01*
X133658444Y-113479943D01*
X133661589Y-113469299D01*
X133667704Y-113461262D01*
X133680453Y-113455467D01*
X133703500Y-113451547D01*
X133740509Y-113449135D01*
X133795144Y-113447865D01*
X133871067Y-113447371D01*
X133971944Y-113447286D01*
X133985000Y-113447286D01*
X134088910Y-113447348D01*
G36*
X134088910Y-113447348D02*
G01*
X134167454Y-113447778D01*
X134224298Y-113448942D01*
X134263105Y-113451207D01*
X134287538Y-113454940D01*
X134301262Y-113460506D01*
X134307940Y-113468273D01*
X134311236Y-113478605D01*
X134311556Y-113479943D01*
X134316562Y-113504079D01*
X134325829Y-113551701D01*
X134338392Y-113617741D01*
X134353287Y-113697128D01*
X134369551Y-113784796D01*
X134370119Y-113787875D01*
X134386410Y-113873789D01*
X134401652Y-113949696D01*
X134414861Y-114011045D01*
X134425054Y-114053282D01*
X134431248Y-114071855D01*
X134431543Y-114072184D01*
X134449788Y-114081253D01*
X134487405Y-114096367D01*
X134536271Y-114114262D01*
X134536543Y-114114358D01*
X134598093Y-114137493D01*
X134670657Y-114166965D01*
X134739057Y-114196597D01*
X134742294Y-114198062D01*
X134853702Y-114248626D01*
X135100399Y-114080160D01*
X135176077Y-114028803D01*
X135244631Y-113982889D01*
X135302088Y-113945030D01*
X135344476Y-113917837D01*
X135367825Y-113903921D01*
X135370042Y-113902889D01*
X135387010Y-113907484D01*
X135418701Y-113929655D01*
X135466352Y-113970447D01*
X135531198Y-114030905D01*
X135597397Y-114095227D01*
X135661214Y-114158612D01*
X135718329Y-114216451D01*
X135765305Y-114265175D01*
X135798703Y-114301210D01*
X135815085Y-114320984D01*
X135815694Y-114322002D01*
X135817505Y-114335572D01*
X135810683Y-114357733D01*
X135793540Y-114391478D01*
X135764393Y-114439800D01*
X135721555Y-114505692D01*
X135664448Y-114590517D01*
X135613766Y-114665177D01*
X135568461Y-114732140D01*
X135531150Y-114787516D01*
X135504452Y-114827420D01*
X135490985Y-114847962D01*
X135490137Y-114849356D01*
X135491781Y-114869038D01*
X135504245Y-114907293D01*
X135525048Y-114956889D01*
X135532462Y-114972728D01*
X135564814Y-115043290D01*
X135599328Y-115123353D01*
X135627365Y-115192629D01*
X135647568Y-115244045D01*
X135663615Y-115283119D01*
X135672888Y-115303541D01*
X135674041Y-115305114D01*
X135691096Y-115307721D01*
X135731298Y-115314863D01*
X135789302Y-115325523D01*
X135859763Y-115338685D01*
X135937335Y-115353333D01*
X136016672Y-115368449D01*
X136092431Y-115383018D01*
X136159264Y-115396022D01*
X136211828Y-115406445D01*
X136244776Y-115413270D01*
X136252857Y-115415199D01*
X136261205Y-115419962D01*
X136267506Y-115430718D01*
X136272045Y-115451098D01*
X136275104Y-115484734D01*
X136276967Y-115535255D01*
X136277918Y-115606292D01*
X136278240Y-115701476D01*
X136278257Y-115740492D01*
X136278257Y-116057799D01*
X136202057Y-116072839D01*
X136159663Y-116080995D01*
X136096400Y-116092899D01*
X136019962Y-116107116D01*
X135938043Y-116122210D01*
X135915400Y-116126355D01*
X135839806Y-116141053D01*
X135773953Y-116155505D01*
X135723366Y-116168375D01*
X135693574Y-116178322D01*
X135688612Y-116181287D01*
X135676426Y-116202283D01*
X135658953Y-116242967D01*
X135639577Y-116295322D01*
X135635734Y-116306600D01*
X135610339Y-116376523D01*
X135578817Y-116455418D01*
X135547969Y-116526266D01*
X135547817Y-116526595D01*
X135496447Y-116637733D01*
X135665399Y-116886253D01*
X135834352Y-117134772D01*
X135617429Y-117352058D01*
X135551819Y-117416726D01*
X135491979Y-117473733D01*
X135441267Y-117520033D01*
X135403046Y-117552584D01*
X135380675Y-117568343D01*
X135377466Y-117569343D01*
X135358626Y-117561469D01*
X135320180Y-117539578D01*
X135266330Y-117506267D01*
X135201276Y-117464131D01*
X135130940Y-117416943D01*
X135059555Y-117368810D01*
X134995908Y-117326928D01*
X134944041Y-117293871D01*
X134907995Y-117272218D01*
X134891867Y-117264543D01*
X134872189Y-117271037D01*
X134834875Y-117288150D01*
X134787621Y-117312326D01*
X134782612Y-117315013D01*
X134718977Y-117346927D01*
X134675341Y-117362579D01*
X134648202Y-117362745D01*
X134634057Y-117348204D01*
X134633975Y-117348000D01*
X134626905Y-117330779D01*
X134610042Y-117289899D01*
X134584695Y-117228525D01*
X134552171Y-117149819D01*
X134513778Y-117056947D01*
X134470822Y-116953072D01*
X134429222Y-116852502D01*
X134383504Y-116741516D01*
X134341526Y-116638703D01*
X134304548Y-116547215D01*
X134273827Y-116470201D01*
X134250622Y-116410815D01*
X134236190Y-116372209D01*
X134231743Y-116357800D01*
X134242896Y-116341272D01*
X134272069Y-116314930D01*
X134310971Y-116285887D01*
X134421757Y-116194039D01*
X134508351Y-116088759D01*
X134569716Y-115972266D01*
X134604815Y-115846776D01*
X134612608Y-115714507D01*
X134606943Y-115653457D01*
X134576078Y-115526795D01*
X134522920Y-115414941D01*
X134450767Y-115319001D01*
X134362917Y-115240076D01*
X134262665Y-115179270D01*
X134153310Y-115137687D01*
X134038147Y-115116428D01*
X133920475Y-115116599D01*
X133803590Y-115139301D01*
X133690789Y-115185638D01*
X133585369Y-115256713D01*
X133541368Y-115296911D01*
X133456979Y-115400129D01*
X133398222Y-115512925D01*
X133364704Y-115632010D01*
X133356035Y-115754095D01*
X133371823Y-115875893D01*
X133411678Y-115994116D01*
X133475207Y-116105475D01*
X133562021Y-116206684D01*
X133659029Y-116285887D01*
X133699437Y-116316162D01*
X133727982Y-116342219D01*
X133738257Y-116357825D01*
X133732877Y-116374843D01*
X133717575Y-116415500D01*
X133693612Y-116476642D01*
X133662244Y-116555119D01*
X133624732Y-116647780D01*
X133582333Y-116751472D01*
X133540663Y-116852526D01*
X133494690Y-116963607D01*
X133452107Y-117066541D01*
X133414221Y-117158165D01*
X133382340Y-117235316D01*
X133357771Y-117294831D01*
X133341820Y-117333544D01*
X133335910Y-117348000D01*
X133321948Y-117362685D01*
X133294940Y-117362642D01*
X133251413Y-117347099D01*
X133187890Y-117315284D01*
X133187388Y-117315013D01*
X133139560Y-117290323D01*
X133100897Y-117272338D01*
X133079095Y-117264614D01*
X133078133Y-117264543D01*
X133061721Y-117272378D01*
X133025487Y-117294165D01*
X132973474Y-117327328D01*
X132909725Y-117369291D01*
X132839060Y-117416943D01*
X132767116Y-117465191D01*
X132702274Y-117507151D01*
X132648735Y-117540227D01*
X132610697Y-117561821D01*
X132592533Y-117569343D01*
X132575808Y-117559457D01*
X132542180Y-117531826D01*
X132495010Y-117489495D01*
X132437658Y-117435505D01*
X132373484Y-117372899D01*
X132352497Y-117351983D01*
X132135499Y-117134623D01*
X132300668Y-116892220D01*
X132350864Y-116817781D01*
X132394919Y-116750972D01*
X132430362Y-116695665D01*
X132454719Y-116655729D01*
X132465522Y-116635036D01*
X132465838Y-116633563D01*
X132460143Y-116614058D01*
X132444826Y-116574822D01*
X132422537Y-116522430D01*
X132406893Y-116487355D01*
X132377641Y-116420201D01*
X132350094Y-116352358D01*
X132328737Y-116295034D01*
X132322935Y-116277572D01*
X132306452Y-116230938D01*
X132290340Y-116194905D01*
X132281490Y-116181287D01*
X132261960Y-116172952D01*
X132219334Y-116161137D01*
X132159145Y-116147181D01*
X132086922Y-116132422D01*
X132054600Y-116126355D01*
X131972522Y-116111273D01*
X131893795Y-116096669D01*
X131826109Y-116083980D01*
X131777160Y-116074642D01*
X131767943Y-116072839D01*
X131691743Y-116057799D01*
X131691743Y-115740492D01*
X131691914Y-115636154D01*
X131692616Y-115557213D01*
X131694134Y-115500038D01*
X131696749Y-115460999D01*
X131700746Y-115436465D01*
X131706409Y-115422805D01*
X131714020Y-115416389D01*
X131717143Y-115415199D01*
X131735978Y-115410980D01*
X131777588Y-115402562D01*
X131836630Y-115390961D01*
X131907757Y-115377195D01*
X131985625Y-115362280D01*
X132064887Y-115347232D01*
X132140198Y-115333069D01*
X132206213Y-115320806D01*
X132257587Y-115311461D01*
X132288975Y-115306050D01*
X132295959Y-115305114D01*
X132302285Y-115292596D01*
X132316290Y-115259246D01*
X132335355Y-115211377D01*
X132342634Y-115192629D01*
X132371996Y-115120195D01*
X132406571Y-115040170D01*
X132437537Y-114972728D01*
X132460323Y-114921159D01*
X132475482Y-114878785D01*
X132480542Y-114852834D01*
X132479736Y-114849356D01*
X132469041Y-114832936D01*
X132444620Y-114796417D01*
X132409095Y-114743687D01*
X132365087Y-114678635D01*
X132315217Y-114605151D01*
X132305356Y-114590645D01*
X132247492Y-114504704D01*
X132204956Y-114439261D01*
X132176054Y-114391304D01*
X132159090Y-114357820D01*
X132152367Y-114335795D01*
X132154190Y-114322217D01*
X132154236Y-114322131D01*
X132168586Y-114304297D01*
X132200323Y-114269817D01*
X132246010Y-114222268D01*
X132302204Y-114165222D01*
X132365468Y-114102255D01*
X132372602Y-114095227D01*
X132452330Y-114018020D01*
X132513857Y-113961330D01*
X132558421Y-113924110D01*
X132587257Y-113905315D01*
X132599958Y-113902889D01*
X132618494Y-113913471D01*
X132656961Y-113937916D01*
X132711386Y-113973612D01*
X132777798Y-114017947D01*
X132852225Y-114068311D01*
X132869601Y-114080160D01*
X133116297Y-114248626D01*
X133227706Y-114198062D01*
X133295457Y-114168595D01*
X133368183Y-114138959D01*
X133430703Y-114115330D01*
X133433457Y-114114358D01*
X133482360Y-114096457D01*
X133520057Y-114081320D01*
X133538425Y-114072210D01*
X133538456Y-114072184D01*
X133544285Y-114055717D01*
X133554192Y-114015219D01*
X133567195Y-113955242D01*
X133582309Y-113880340D01*
X133598552Y-113795064D01*
X133599881Y-113787875D01*
X133616175Y-113700014D01*
X133631133Y-113620260D01*
X133643791Y-113553681D01*
X133653186Y-113505347D01*
X133658354Y-113480325D01*
X133658444Y-113479943D01*
X133661589Y-113469299D01*
X133667704Y-113461262D01*
X133680453Y-113455467D01*
X133703500Y-113451547D01*
X133740509Y-113449135D01*
X133795144Y-113447865D01*
X133871067Y-113447371D01*
X133971944Y-113447286D01*
X133985000Y-113447286D01*
X134088910Y-113447348D01*
G37*
D15*
%TO.C,J1*%
X127400000Y-99830000D02*
X127400000Y-100830000D01*
X127400000Y-100830000D02*
X128400000Y-100330000D01*
X128400000Y-100330000D02*
X127400000Y-99830000D01*
X128790000Y-95120000D02*
X137910000Y-95120000D01*
X128790000Y-102090000D02*
X130100000Y-102090000D01*
X128790000Y-113160000D02*
X128790000Y-95120000D01*
X130100000Y-96420000D02*
X136600000Y-96420000D01*
X130100000Y-102090000D02*
X130100000Y-96420000D01*
X130100000Y-106190000D02*
X128790000Y-106190000D01*
X130100000Y-106190000D02*
X130100000Y-106190000D01*
X130100000Y-111860000D02*
X130100000Y-106190000D01*
X136600000Y-96420000D02*
X136600000Y-111860000D01*
X136600000Y-111860000D02*
X130100000Y-111860000D01*
X137910000Y-95120000D02*
X137910000Y-113160000D01*
X137910000Y-113160000D02*
X128790000Y-113160000D01*
%TD*%
M02*
