M48
; DRILL file {KiCad 7.0.6} date Sat Sep  9 11:39:28 2023
; FORMAT={-:-/ absolute / inch / decimal}
; #@! TF.CreationDate,2023-09-09T11:39:28-04:00
; #@! TF.GenerationSoftware,Kicad,Pcbnew,7.0.6
; #@! TF.FileFunction,Plated,1,2,PTH
FMAT,2
INCH
; #@! TA.AperFunction,Plated,PTH,ViaDrill
T1C0.0157
; #@! TA.AperFunction,Plated,PTH,ComponentDrill
T2C0.0315
; #@! TA.AperFunction,Plated,PTH,ComponentDrill
T3C0.0394
; #@! TA.AperFunction,Plated,PTH,ComponentDrill
T4C0.0402
; #@! TA.AperFunction,Plated,PTH,ComponentDrill
T5C0.0433
%
G90
G05
T1
X3.25Y-4.85
X3.4Y-4.3
X3.45Y-4.2
X3.5Y-4.27
X3.55Y-4.175
X3.6Y-4.24
X3.65Y-4.15
X3.7Y-4.21
X3.75Y-4.125
X3.8Y-2.85
X3.8Y-4.18
X3.85Y-4.1
X3.9Y-4.15
X3.95Y-4.075
X4.0Y-4.12
X4.05Y-4.05
X4.1Y-4.09
X4.225Y-4.05
X4.25Y-2.8
X4.45Y-4.85
X4.6Y-4.3
X4.7Y-4.27
X4.8Y-4.24
X4.9Y-4.21
X5.0Y-4.18
X5.1Y-4.15
X5.2Y-4.12
X5.3Y-4.09
X6.075Y-3.775
X6.7Y-3.975
X6.75Y-3.925
X6.925Y-2.8
X6.925Y-4.05
X6.95Y-3.2
X6.95Y-3.3
X7.0Y-5.175
X7.1Y-5.175
T2
X3.3Y-4.4
X3.3Y-4.7
X3.4Y-4.4
X3.4Y-4.7
X3.5Y-4.4
X3.5Y-4.7
X3.6Y-4.4
X3.6Y-4.7
X3.7Y-4.4
X3.7Y-4.7
X3.8Y-4.4
X3.8Y-4.7
X3.9Y-4.4
X3.9Y-4.7
X3.95Y-4.85
X4.0Y-4.4
X4.0Y-4.7
X4.1Y-4.4
X4.1Y-4.7
X4.2Y-4.4
X4.2Y-4.7
X4.35Y-4.5031
X4.35Y-4.7
X4.35Y-4.85
X4.5Y-4.4
X4.5Y-4.7
X4.6Y-4.4
X4.6Y-4.7
X4.7Y-4.4
X4.7Y-4.7
X4.8Y-4.4
X4.8Y-4.7
X4.9Y-4.4
X4.9Y-4.7
X5.0Y-4.4
X5.0Y-4.7
X5.1Y-4.4
X5.1Y-4.7
X5.2Y-4.4
X5.2Y-4.7
X5.3Y-4.4
X5.3Y-4.7
X5.4Y-4.4
X5.4Y-4.7
X5.45Y-4.85
X5.55Y-4.5031
X5.55Y-4.7
X5.7Y-4.4
X5.7Y-4.7
X5.8Y-4.4
X5.8Y-4.7
X5.85Y-4.85
X5.9Y-4.4
X5.9Y-4.7
X6.0Y-4.4
X6.0Y-4.7
X6.05Y-4.85
X6.1Y-4.4
X6.1Y-4.7
X6.2Y-4.4
X6.2Y-4.7
X6.3Y-2.75
X6.3Y-2.85
X6.3Y-2.975
X6.3Y-3.075
X6.3Y-3.175
X6.3Y-3.3
X6.3Y-3.4
X6.3Y-3.5
X6.3Y-3.625
X6.3Y-3.725
X6.3Y-3.825
X6.3Y-4.4
X6.3Y-4.7
X6.4Y-4.4
X6.4Y-4.7
X6.45Y-4.85
X6.5Y-4.4
X6.5Y-4.7
X6.6Y-4.4
X6.6Y-4.7
X6.7Y-2.75
X6.7Y-2.85
X6.7Y-2.975
X6.7Y-3.075
X6.7Y-3.175
X6.7Y-3.3
X6.7Y-3.4
X6.7Y-3.5
X6.7Y-3.625
X6.7Y-3.725
X6.7Y-3.825
X6.75Y-4.5031
X6.75Y-4.7
X7.0Y-4.1
X7.0Y-4.2
X7.0Y-4.3
X7.0Y-4.4
X7.0Y-4.5
X7.0Y-4.6
X7.0Y-4.7
X7.0Y-4.8
X7.0Y-4.9
X7.0Y-5.0
X7.1031Y-3.95
X7.3Y-3.95
X7.3Y-4.1
X7.3Y-4.2
X7.3Y-4.3
X7.3Y-4.4
X7.3Y-4.5
X7.3Y-4.6
X7.3Y-4.7
X7.3Y-4.8
X7.3Y-4.9
X7.3Y-5.0
X7.45Y-4.2
X7.45Y-4.6
T3
X6.5Y-5.05
X6.6Y-5.05
X6.7Y-5.05
X6.8Y-5.05
X7.15Y-3.15
X7.15Y-3.25
X7.15Y-3.35
X7.15Y-3.45
X7.25Y-3.15
X7.25Y-3.25
X7.25Y-3.35
X7.25Y-3.45
X7.5Y-5.05
X7.5Y-5.15
T4
X3.3Y-3.05
X3.3Y-3.75
X3.4Y-3.05
X3.4Y-3.75
X3.5Y-3.05
X3.5Y-3.75
X3.6Y-3.05
X3.6Y-3.75
X3.7Y-3.05
X3.7Y-3.75
X3.8Y-3.05
X3.8Y-3.75
X3.9Y-3.05
X3.9Y-3.75
X4.0Y-3.05
X4.0Y-3.75
X4.1Y-3.05
X4.1Y-3.75
X4.2Y-3.05
X4.2Y-3.75
X4.3Y-3.05
X4.3Y-3.75
X4.4Y-3.05
X4.4Y-3.75
X4.5Y-3.05
X4.5Y-3.75
X4.6Y-3.05
X4.6Y-3.75
X4.7Y-3.05
X4.7Y-3.75
X4.8Y-3.05
X4.8Y-3.75
X4.9Y-3.05
X4.9Y-3.75
X5.0Y-3.05
X5.0Y-3.75
X5.1Y-3.05
X5.1Y-3.75
X5.1909Y-3.3
X5.1909Y-3.4
X5.1909Y-3.5
X5.2Y-3.05
X5.2Y-3.75
T5
X3.4Y-2.725
X3.8Y-2.725
X5.472Y-3.15
X5.472Y-3.3272
X5.728Y-3.15
X5.728Y-3.3272
T0
M30
